<svg id="App-icon" xmlns="http://www.w3.org/2000/svg" width="1024" height="1024" viewBox="0 0 1024 1024">
  <rect id="Rectangle_15100" data-name="Rectangle 15100" width="1024" height="1024" fill="#c42c32"/>
  <g id="Group_308" data-name="Group 308" transform="translate(-2897.025 -288.291)">
    <g id="Group_304" data-name="Group 304" transform="translate(3209.387 450.29)">
      <g id="Group_258" data-name="Group 258" transform="translate(0 550.416)">
        <path id="Path_310" data-name="Path 310" d="M3186.743,625.593c12.83,11.544,25.82,23.665,37.138,35.05A268.269,268.269,0,0,1,3160.7,608.68h6.947c5.4,4.695,11,9.647,16.688,14.758C3185.134,624.148,3185.94,624.888,3186.743,625.593Z" transform="translate(-3160.697 -608.68)" fill="#fff"/>
        <path id="Path_311" data-name="Path 311" d="M3194.261,651.547a9.993,9.993,0,0,1-3.858,1.769,11.2,11.2,0,0,1-2.026.094.426.426,0,0,0,.031.195c-1.991.16-4.4-.226-5.689-2.509-.1-.191-.195-.32-.256-.448,0-.035-.032-.035-.032-.066a10.789,10.789,0,0,1-1.609-4.855c-.1-.771-.163-1.446-.226-2.026q-.385-3.571-.674-7.04c-.323-3.441-.581-6.818-.775-10.1.741.514,1.449,1.029,2.158,1.543.737.514,1.477,1.063,2.183,1.578.9.643,1.8,1.317,2.641,1.991.031.678.094,1.352.159,2.026.289,3.569.643,7.235,1.061,10.967.065.643.128,1.286.226,1.96.031,0,.031.031.063.031a1.435,1.435,0,0,0,.354.128,2.433,2.433,0,0,0,2.284-.608,6.306,6.306,0,0,0,2.478-5.6c-.647-3.471-3.378-6.3-6.623-8.907-.066-.608-.133-1.22-.164-1.831-.159-2.346-.319-4.664-.448-6.912.643.448,1.287.931,1.928,1.383,5.082,3.729,10.609,8.264,11.865,15.078A12.9,12.9,0,0,1,3194.261,651.547Z" transform="translate(-3115.032 -573.41)" fill="#fff"/>
        <path id="Path_312" data-name="Path 312" d="M3193.136,639.507c-.837-.674-1.738-1.348-2.641-1.991-.705-.514-1.446-1.063-2.182-1.578-.71-.514-1.418-1.029-2.158-1.543-2.185-1.543-4.469-3.117-6.815-4.695,0-.031-.035-.094-.035-.129-.352-1.091-.706-2.155-1.025-3.215v-.031c-.646-2.123-1.286-4.212-1.866-6.273l-.1-.288c2.957,1.929,5.852,3.826,8.587,5.692.258.16.514.354.771.515V626a1.227,1.227,0,0,0,.289.16c2.283,1.577,4.469,3.089,6.561,4.6.129,2.248.289,4.566.448,6.912C3193,638.287,3193.07,638.9,3193.136,639.507Z" transform="translate(-3122.039 -581.244)" fill="#fff"/>
        <path id="Path_313" data-name="Path 313" d="M3183.829,631.674a10.875,10.875,0,0,1-1.995.288.428.428,0,0,1-.031-.195A11.178,11.178,0,0,0,3183.829,631.674Z" transform="translate(-3108.459 -551.768)" fill="#fff"/>
        <path id="Path_314" data-name="Path 314" d="M3242.92,627.5a3.294,3.294,0,0,1-3.5,3.117.736.736,0,0,1-.259-.031h-.063a3.377,3.377,0,0,1-2.057-3.7,3.279,3.279,0,0,1,3.857-2.7c.675.128,1.352.226,2.026.32C3242.951,625.857,3242.951,626.886,3242.92,627.5Z" transform="translate(-2971.887 -570.454)" fill="#fff"/>
      </g>
      <g id="Layer_2" data-name="Layer 2" transform="translate(63.309)">
        <g id="Group_303" data-name="Group 303">
          <g id="Group_260" data-name="Group 260" transform="translate(4.945 352.028)">
            <g id="Group_259" data-name="Group 259">
              <path id="Path_315" data-name="Path 315" d="M3186.632,794.251a3.32,3.32,0,0,1-3.3-2.982c-10.467-102.546,7.41-149.209,39.864-233.918l1.39-3.628a3.321,3.321,0,0,1,6.2,2.373l-1.39,3.631C3197.3,643.482,3179.63,689.62,3189.937,790.6a3.32,3.32,0,0,1-2.964,3.638A2.87,2.87,0,0,1,3186.632,794.251Z" transform="translate(-3180.338 -551.591)" fill="#fff"/>
            </g>
          </g>
          <g id="Group_262" data-name="Group 262" transform="translate(48.971 352.027)">
            <g id="Group_261" data-name="Group 261">
              <path id="Path_316" data-name="Path 316" d="M3268.695,576.552a3.293,3.293,0,0,1-.55-.049c-3.527-.587-7.419-1.164-11.537-1.776-20.757-3.083-46.586-6.919-62.1-17.035a3.319,3.319,0,0,1,3.627-5.56c14.3,9.324,39.328,13.042,59.446,16.027,4.159.619,8.089,1.2,11.652,1.8a3.321,3.321,0,0,1-.542,6.6Z" transform="translate(-3193.007 -551.591)" fill="#fff"/>
            </g>
          </g>
          <g id="Group_264" data-name="Group 264" transform="translate(115.058 312.788)">
            <g id="Group_263" data-name="Group 263">
              <path id="Path_317" data-name="Path 317" d="M3227.331,686.984a3.507,3.507,0,0,0,.549-1.946,3.257,3.257,0,0,0-.761-1.974c-1.7-39.661-2.55-94.6-2-131.768.063-2.28.094-4.5.121-6.62.031-.365.031-.671.031-1a3.312,3.312,0,0,0-6.621-.212l-.031.73-.334,6.62-2.155,46.159-.275,6.651-3.827,81.661A3.4,3.4,0,0,0,3213,687.8a3.253,3.253,0,0,0,2.463.97l5.283-.181c.149,3.339.3,6.557.513,9.657a1.078,1.078,0,0,0,.032.334,1.928,1.928,0,0,0,.059.424,3.24,3.24,0,0,0,2.28,2.429.884.884,0,0,0,.3.062,3.736,3.736,0,0,0,.639.059h.18a3.323,3.323,0,0,0,3.131-3.493c-.031-.789-.093-1.546-.121-2.366C3227.575,692.906,3227.453,690.021,3227.331,686.984Zm-8.5-4.983.882-19.193c.212,6.624.483,13.059.727,19.165Z" transform="translate(-3212.024 -540.299)" fill="#fff"/>
            </g>
          </g>
          <g id="Group_266" data-name="Group 266" transform="translate(124.272 467.414)">
            <g id="Group_265" data-name="Group 265">
              <path id="Path_318" data-name="Path 318" d="M3277.187,600.036a216.913,216.913,0,0,1-60.115-8.733,3.32,3.32,0,1,1,1.852-6.377c26.215,7.61,53.324,10.158,78.394,7.374a3.32,3.32,0,0,1,.733,6.6A188.592,188.592,0,0,1,3277.187,600.036Z" transform="translate(-3214.676 -584.795)" fill="#fff"/>
            </g>
          </g>
          <g id="Group_268" data-name="Group 268" transform="translate(199.624 327.329)">
            <g id="Group_267" data-name="Group 267">
              <path id="Path_319" data-name="Path 319" d="M3244.01,698.573a3.32,3.32,0,0,1-3.312-3.141l-.315-5.943c-2.295-42.938-5.437-101.75-3.327-141.86a3.355,3.355,0,0,1,3.49-3.141,3.317,3.317,0,0,1,3.14,3.489c-2.091,39.758,1.168,100.78,3.327,141.161l.316,5.939a3.321,3.321,0,0,1-3.14,3.493C3244.132,698.573,3244.074,698.573,3244.01,698.573Z" transform="translate(-3236.36 -544.484)" fill="#fff"/>
            </g>
          </g>
          <g id="Group_270" data-name="Group 270" transform="translate(200.317 378.556)">
            <g id="Group_269" data-name="Group 269">
              <path id="Path_320" data-name="Path 320" d="M3254.751,567.62a61.7,61.7,0,0,1-9.75-.984c-1.55-.229-3.361-.5-5.574-.8a3.32,3.32,0,0,1,.9-6.578c2.242.309,4.076.58,5.643.817,7.354,1.091,8.482,1.258,18.772.177a3.319,3.319,0,0,1,.7,6.6A105.56,105.56,0,0,1,3254.751,567.62Z" transform="translate(-3236.56 -559.225)" fill="#fff"/>
            </g>
          </g>
          <g id="Group_272" data-name="Group 272" transform="translate(70.989 140.107)">
            <g id="Group_271" data-name="Group 271">
              <path id="Path_321" data-name="Path 321" d="M3357.205,736.7a3.32,3.32,0,1,1,0-6.641c18.672,0,49.026-20.392,53.36-30.852.5-1.22.555-2.047.149-2.453-2.839-2.561-22.474,1.036-30.855,2.575-13.726,2.516-17.42,3.194-19.13-.059a4.011,4.011,0,0,1,1.049-4.869c2.394-2.394,6.835-2.915,12.458-3.579,3.316-.389,8.2-.966,10.818-2.148-4.521-.452-12.354-.625-17.115-.733-3.879-.087-7.225-.16-9.5-.306-4.173-.087-7.683-.129-10.564-.163-12.226-.149-14.428-.174-18.23-3.975a3.321,3.321,0,0,1-.973-2.314c-2.7-4.17-31.592-5.216-48.9-5.842-36.548-1.324-57.293-2.558-58.673-12.538-1.481-10.728-.636-25.528.34-42.663,2.36-41.374,5.3-92.871-21.3-124.057a3.319,3.319,0,1,1,5.049-4.309c28.332,33.215,25.31,86.182,22.879,128.745-.955,16.788-1.782,31.289-.388,41.378,0,.024,1,2.7,15.185,4.521,10.228,1.313,23.913,1.811,37.149,2.29,34.393,1.244,53.291,2.342,55.146,10.86,1.328,1.056,3.045,1.15,12.8,1.265,2.9.035,6.429.076,10.77.174,2.28.143,5.72.219,9.362.3,20.166.448,25.437.761,25.437,5.484a8.136,8.136,0,0,1-.774,3.611c11.411-1.675,19.217-1.783,22.66,1.661,1.4,1.4,3.43,4.521,1.289,9.692-3.232,7.8-14.568,16.771-24.1,22.567C3379.661,732.188,3366.758,736.7,3357.205,736.7Z" transform="translate(-3199.343 -490.608)" fill="#fff"/>
            </g>
          </g>
          <g id="Group_274" data-name="Group 274" transform="translate(32.875 138.155)">
            <g id="Group_273" data-name="Group 273">
              <path id="Path_322" data-name="Path 322" d="M3198.16,696.773a3.323,3.323,0,0,1-3.128-2.2c-7.7-21.559-8.709-52.074-3.093-93.285,1.335-9.782,5.04-17.994,8.619-25.938a115.724,115.724,0,0,0,6.707-17.268c.809-2.964,1.307-10.206,1.835-17.872,1.755-25.556,3.8-45.423,12.624-49.44,2.155-.983,5.658-1.449,10.085,1.9a3.32,3.32,0,1,1-4,5.3c-1.007-.765-2.4-1.585-3.332-1.157-5.921,2.7-7.763,29.469-8.75,43.852-.6,8.695-1.071,15.561-2.051,19.162a122.8,122.8,0,0,1-7.062,18.251c-3.541,7.857-6.887,15.276-8.093,24.107-5.47,40.134-4.566,69.623,2.77,90.157a3.321,3.321,0,0,1-3.128,4.434Z" transform="translate(-3188.375 -490.047)" fill="#fff"/>
            </g>
          </g>
          <g id="Group_276" data-name="Group 276" transform="translate(0 338.247)">
            <g id="Group_275" data-name="Group 275">
              <path id="Path_323" data-name="Path 323" d="M3267.311,622.849c-2.314,2.283-4.469,4.438-6.043,6.206-4.309,4.823-8.584,9.518-12.768,14.05-5.206,5.692-10.286,11.256-15.144,16.819-2.248,2.572-4.435,5.175-6.589,7.781-16.142,19.582-29.233,40.547-36.11,70.384-.034.035-.034.035-.034.066a219.507,219.507,0,0,0-5.144,47.459v.066c-.1,7.2.1,14.821.546,22.894a5.338,5.338,0,0,0,.066.74c.129,2.248.289,4.566.448,6.912.031.612.1,1.223.164,1.831-.837-.674-1.737-1.348-2.641-1.991-.7-.514-1.445-1.063-2.182-1.578-.709-.514-1.418-1.029-2.158-1.543a.732.732,0,0,1-.031-.257,1.573,1.573,0,0,0-.032-.386c-.159-2.638-.288-5.209-.416-7.749v-.031c-1.126-26.206.7-47.716,4.725-66.079,0-.031,0-.031.032-.062a168.855,168.855,0,0,1,8.264-27.012l.03-.031c12.06-29.841,31.034-50.549,51.32-72.7,4.15-4.535,8.425-9.2,12.67-13.987,1.734-1.929,3.986-4.181,6.366-6.526,9.905-9.807,23.475-23.217,18.071-34.021a11.188,11.188,0,0,0-.771-1.317,25.185,25.185,0,0,0-8.682-8.232h-.031s-.034,0-.034-.031c-6.977-4.278-16.2-7.172-25.274-10-9.806-3.023-19.033-5.883-25.656-10.516,0-.031-.035-.031-.035-.031a5.073,5.073,0,0,1-.545-.355,3.315,3.315,0,0,1,3.889-5.369c.257.195.518.354.775.514,5.786,3.923,14.436,6.592,23.537,9.421,13.921,4.309,28.263,8.778,35.916,18.491a26.377,26.377,0,0,1,2.829,4.438,15.067,15.067,0,0,1,1.125,2.891C3292.168,598.249,3277.343,612.914,3267.311,622.849Z" transform="translate(-3178.915 -547.626)" fill="#fff"/>
            </g>
          </g>
          <g id="Group_278" data-name="Group 278" transform="translate(7.92 554.134)">
            <g id="Group_277" data-name="Group 277">
              <path id="Path_324" data-name="Path 324" d="M3184.512,650.308a3.323,3.323,0,0,1-3.041-4.646c7.625-17.525,15.684-23.818,31.752-35.293a3.32,3.32,0,1,1,3.858,5.4c-15.457,11.04-22.585,16.594-29.521,32.537A3.323,3.323,0,0,1,3184.512,650.308Z" transform="translate(-3181.194 -609.75)" fill="#fff"/>
            </g>
          </g>
          <g id="Group_280" data-name="Group 280" transform="translate(38.235 448.383)">
            <g id="Group_279" data-name="Group 279">
              <path id="Path_325" data-name="Path 325" d="M3346.287,764.924c-.19,3.054-.319,17.264-.452,29.774-.061,9.807-.158,18.3-.256,20.708a3.272,3.272,0,0,1-1.348,2.54c-4.567,3.375-10.675,4.115-16.593,4.823-4.372.515-8.455,1.029-11.478,2.474-7.847,3.795-15.469,5.692-22.672,5.692a39.682,39.682,0,0,1-4.372-.226,38.565,38.565,0,0,0-4.725-.16,25.008,25.008,0,0,1-9.068-1.029,48.874,48.874,0,0,1-7.749-3.732,44.445,44.445,0,0,0-6.464-3.215c-9.842-3.312-20.61-2.443-31.994-1.512-12.476,1-25.4,2.057-37.17-2.895a3.3,3.3,0,0,1-2.026-3.055c-.031-18.553.58-39.87,1.544-62.378q.145-3.378.288-6.752c1-22.415,2.282-45.822,3.538-68.911,1.768-31.832,3.44-62.089,4.246-87.812.062-2.283.128-4.535.19-6.721a3.3,3.3,0,0,1,6.4-1.06,3.162,3.162,0,0,1,.226,1.251c-.705,27.2-2.509,60-4.438,94.73-1.286,23.794-2.634,48-3.662,71-.067,2.252-.163,4.5-.258,6.721-.869,20.739-1.418,40.352-1.449,57.652,9.775,3.409,20.611,2.54,32.026,1.609,11.575-.931,23.506-1.9,34.665,1.866a50.847,50.847,0,0,1,7.586,3.666,42.534,42.534,0,0,0,6.56,3.246,20.159,20.159,0,0,0,6.944.709,41.479,41.479,0,0,1,5.532.191c7.236.772,15.113-.834,23.439-4.854,3.991-1.929,8.845-2.509,13.539-3.086,4.407-.549,8.97-1.095,12.153-2.766.1-3.635.164-11.03.226-18.779.129-11.961.227-24.277.356-28.906h.031c0-.483,0-.869.031-1.192a3.409,3.409,0,0,1,3.537-3.117,3.365,3.365,0,0,1,3.089,2.926A3.459,3.459,0,0,1,3346.287,764.924Z" transform="translate(-3189.918 -579.319)" fill="#fff"/>
            </g>
          </g>
          <g id="Group_282" data-name="Group 282" transform="translate(111.185 481.698)">
            <g id="Group_281" data-name="Group 281">
              <path id="Path_326" data-name="Path 326" d="M3227.416,588.91a3.277,3.277,0,0,0-3.4,3.128c-.027.667-.121,1.366-.149,2.1a19.748,19.748,0,0,1-1,3.1c-1.911,4.92-5.435,14.06-9.229,45.979a377.83,377.83,0,0,0,.3,92.958c.184,1.216.3,2.37.455,3.524.091.848.244,1.731.365,2.551.153,1.334.334,2.641.518,3.979,1.821,14.241,3.249,27.178,2.245,45.1a3.639,3.639,0,0,0,.153,1.185c-.059,1.032-.09,2.033-.153,3.006-.059,1.578-.181,3.006-.243,4.4a3.32,3.32,0,0,0,3.1,3.493h.212a3.294,3.294,0,0,0,3.308-3.1,10.111,10.111,0,0,0,.094-1.4c.7-11.906,1.3-30.431,1.911-52.112.063-2.127.122-4.285.155-6.439.364-12.632.7-26.146,1.031-39.936,1.033-41.513,2.065-84.4,3.372-105.531a12.591,12.591,0,0,0,.183-2.7A3.356,3.356,0,0,0,3227.416,588.91Zm-7.2,55.118c.73-6.349,1.456-11.784,2.217-16.368-.7,21.195-1.366,47.129-2.006,72.609-.211,9.657-.482,19.224-.694,28.457A372.627,372.627,0,0,1,3220.219,644.028Z" transform="translate(-3210.911 -588.906)" fill="#fff"/>
            </g>
          </g>
          <g id="Group_284" data-name="Group 284" transform="translate(188.109 481.761)">
            <g id="Group_283" data-name="Group 283">
              <path id="Path_327" data-name="Path 327" d="M3252.659,714.621a3.293,3.293,0,0,1-3.5,3.117.739.739,0,0,1-.26-.031h-.062a3.334,3.334,0,0,1-2.8-3.471c.129-2.026-.062-7.267-.385-14.147-.031-.935-.1-1.866-.129-2.864-.74-13.89-1.96-32.767-2.8-45.082-1.321,31.8-2.572,67.333-2.926,81.772-.1,3.44-.129,5.689-.1,6.4v.191a2.345,2.345,0,0,1-.19.966v.031a3.352,3.352,0,0,1-3.024,2.252h-.128a3.285,3.285,0,0,1-2.992-1.9,3.46,3.46,0,0,1-.32-1.286v-.612c0-.9,0-2.474.066-4.6.289-12.413,1.415-43.664,2.506-71.416,2.057-51.609,2.863-66.624,3.6-71.448v-.289h.031c.288-1.706.546-1.96.865-2.314a2.9,2.9,0,0,1,.323-.292h.035a3.347,3.347,0,0,1,3.761-.191h.031a2.041,2.041,0,0,1,.611.448,3.311,3.311,0,0,1,.966,2.349c0,8.618,1.6,32.089,3.18,54.792.646,9.647,1.417,21.705,2.092,32.958.385,6.592.74,12.9,1.029,18.3v.031c.288,5.661.482,10.325.514,13.344C3252.691,712.981,3252.691,714.01,3252.659,714.621Z" transform="translate(-3233.046 -588.924)" fill="#fff"/>
            </g>
          </g>
          <g id="Group_286" data-name="Group 286" transform="translate(200.316 380.31)">
            <g id="Group_285" data-name="Group 285">
              <path id="Path_328" data-name="Path 328" d="M3239.879,774.112a3.252,3.252,0,0,1-1.019-.163,3.32,3.32,0,0,1-2.141-4.177c1.64-5.091,3.2-9.873,4.688-14.411,13.612-41.642,20.44-62.541,20.364-115.692-.166-6.62-.837-13.959-1.55-21.726-1.793-19.582-3.648-39.828,1.721-55.942a3.321,3.321,0,0,1,6.3,2.1c-4.931,14.79-3.142,34.334-1.408,53.235.72,7.882,1.4,15.325,1.578,22.244.076,54.291-6.865,75.531-20.694,117.843-1.484,4.531-3.041,9.3-4.681,14.383A3.319,3.319,0,0,1,3239.879,774.112Z" transform="translate(-3236.559 -559.73)" fill="#fff"/>
            </g>
          </g>
          <g id="Group_288" data-name="Group 288" transform="translate(192.949 188.49)">
            <g id="Group_287" data-name="Group 287">
              <path id="Path_329" data-name="Path 329" d="M3282.518,653.184a3.278,3.278,0,0,1-1.4-.313,3.316,3.316,0,0,1-1.609-4.41c5.2-11.145,8.95-23.651,13.295-38.136,2.162-7.2,4.4-14.644,7.093-22.963,2.933-10,6.94-24.631,10.488-38.56-3.222,10.085-9.008,27.933-15.1,45.416-18.168,52.161-21.621,51.83-24.969,51.521-14.373-1.345-23.991-4.368-34.309-10.773a3.32,3.32,0,0,1,3.5-5.643c9.237,5.737,17.557,8.406,30.38,9.7,5.515-6.488,22.838-55.883,36.769-100.454l.355-1.133c10.178-32.909,11.075-32.909,14.053-32.909a3.766,3.766,0,0,1,3.031,1.536c1.3,1.734,2.914,3.9-6.262,40.374-4.473,17.775-9.744,36.565-11.6,42.882-2.7,8.337-4.924,15.745-7.075,22.911-4.42,14.731-8.235,27.453-13.637,39.032A3.317,3.317,0,0,1,3282.518,653.184Z" transform="translate(-3234.439 -504.531)" fill="#fff"/>
            </g>
          </g>
          <g id="Group_290" data-name="Group 290" transform="translate(192.953 176.683)">
            <g id="Group_289" data-name="Group 289">
              <path id="Path_330" data-name="Path 330" d="M3320.841,511.092c.028,0,.028-.031.028-.031s0-.031-.028-.031a3.252,3.252,0,0,0-1.852-2.763c-8.806-4.222-19.467-7.836-29.035-7.016a23.209,23.209,0,0,0-16.7,8.684c-2.249,2.825-.03,6.286,4.007,12.514,1.613,2.519,4.588,7.166,4.768,8.684-5.345,34.866-22.957,65.536-39.964,95.175-2.338,4.16-4.767,8.229-7.045,12.392a.028.028,0,0,0-.031.028c-.03.031-.03.062-.061.094s-.029.059-.06.09a4.347,4.347,0,0,0-.275.789,2.192,2.192,0,0,0-.121.4,2.214,2.214,0,0,0-.031.455,1.828,1.828,0,0,0,.063.577.966.966,0,0,0,.06.275,3.705,3.705,0,0,0,.305.789,2.861,2.861,0,0,0,.274.365,2.379,2.379,0,0,0,.272.333,4.936,4.936,0,0,0,.608.486c.031.028.059.028.089.059.032,0,.032.031.063.031a3.308,3.308,0,0,0,1.578.393,3.372,3.372,0,0,0,2.915-1.668c.514-.942,1.064-1.883,1.609-2.825q2.732-4.874,5.556-9.747c17.341-30.219,35.23-61.467,40.788-97.6.482-3.159-1.884-7.047-5.8-13.15-1.153-1.825-2.766-4.344-3.492-5.8,7.013-7.534,19.4-7.138,36.8,1.182a2.934,2.934,0,0,0,1.943.275h.031a3.234,3.234,0,0,0,2.307-1.55,1.2,1.2,0,0,0,.154-.271,3.207,3.207,0,0,0,.3-1.369v-.059a.193.193,0,0,1-.028-.122c.028,0,.028-.031.028-.031A.027.027,0,0,0,3320.841,511.092Z" transform="translate(-3234.44 -501.133)" fill="#fff"/>
            </g>
          </g>
          <g id="Group_292" data-name="Group 292" transform="translate(218.759 146.84)">
            <g id="Group_291" data-name="Group 291">
              <path id="Path_331" data-name="Path 331" d="M3299.184,535.436a3.288,3.288,0,0,1-1.234-.24c-26.747-10.738-45.408-23.321-55.465-37.4a3.32,3.32,0,0,1,5.4-3.857c9.306,13.032,26.98,24.84,52.535,35.1a3.32,3.32,0,0,1-1.24,6.4Z" transform="translate(-3241.866 -492.546)" fill="#fff"/>
            </g>
          </g>
          <g id="Group_294" data-name="Group 294" transform="translate(148.52 124.667)">
            <g id="Group_293" data-name="Group 293">
              <path id="Path_332" data-name="Path 332" d="M3299.677,512.878a5.3,5.3,0,0,0-.639-.545c-.181-.122-.361-.271-.515-.365a3.465,3.465,0,0,0-.7-2.339,2.319,2.319,0,0,0-.548-.546,3.17,3.17,0,0,0-.333-.212c-.029-.031-.029-.063-.059-.063a.613.613,0,0,0-.184-.118c-.028,0-.06-.031-.092-.031a2.506,2.506,0,0,0-.635-.212,3.366,3.366,0,0,0-.76-.094,3.12,3.12,0,0,0-.758.094c-.062.028-.153.028-.215.059a1.294,1.294,0,0,0-.483.184h-.031a1.763,1.763,0,0,0-.549.361c-.181.153-.334.306-.484.455-.031.031-.063.031-.063.063l-.027.031c-1.4,1.731-2.7,3.371-3.921,4.949a132.8,132.8,0,0,0-9.26,13.515,4.812,4.812,0,0,1-.608.424c-5.133,3.1-9.445.73-16.611-5.372-8.472-7.228-13.848-16.159-18.161-23.325-3.8-6.286-6.682-11.113-10.567-12.907a7.861,7.861,0,0,0-2.369-.667,8.066,8.066,0,0,0-3.281.3,12.561,12.561,0,0,0-5.038,3.34c-1.974,1.946-2,3.979,5.251,19.012,3.464,7.138,7.471,14.821,8.444,16.461,9.718,16.639,17.372,24.353,24.2,24.11a9.7,9.7,0,0,0,7.106-3.826c.546,4.646,1.277,11.631,2.187,20.9.121,1.032.243,2.123.333,3.218l.333,3.4.577,5.678c1.609,16.277-4.25,43.64-8.229,62.044v.181a2.167,2.167,0,0,0-.153.4c-4.222,19.464-4.979,22.956-1.487,24.687a5.6,5.6,0,0,0,1,.4,5.435,5.435,0,0,0,1.55.212,6.068,6.068,0,0,0,2.915-.758c14.213-7.774,26.634-99.4,28.152-111.088,0-.031.031-.062.031-.121.059-.671.121-1.036.121-1.126a3.282,3.282,0,0,0-2.946-3.614c-.06,0-.092,0-.122-.027h-.091a3.254,3.254,0,0,0-3.127,2.033.226.226,0,0,0-.062.122,2.589,2.589,0,0,0-.244.82c-.244,2.307-.848,7.016-1.789,13.3v.059c-1.671,11.329-4.372,27.787-7.625,44.036-5.556,27.7-9.869,39.994-12.51,45.461.73-3.7,1.73-8.5,2.7-12.969,4.341-19.951,10.266-47.223,8.5-64.685l-.58-5.89v-.031l-.333-3.159c-.122-1.213-.213-2.335-.362-3.461V565.6c-1-10.537-1.762-17.7-2.311-22.168a32.246,32.246,0,0,0-1.335-7.016,13.847,13.847,0,0,0,2.489.063c-1.276,4.038-.758,6.314.063,7.8.577,1.06,2.429,3.52,6.8,2.975,7.5-.91,19.311-10.568,21.924-20.072.091-.306.153-.608.212-.914A13.125,13.125,0,0,0,3299.677,512.878Zm-34.835,24.812c-1,2.005-2.492,5.011-4.372,5.1-1.459.094-6.894-1.3-18.254-20.861-2.064-3.492-11.9-22.807-13.634-28.364a3.018,3.018,0,0,1,1.7-.761c1.943.243,5.193,5.619,8.079,10.418,4.553,7.562,10.2,17,19.527,24.93a46.593,46.593,0,0,0,9.018,6.439A9.908,9.908,0,0,0,3264.842,537.69Zm32.01-9.869c-3.646,7.381-12.664,12.847-15.579,12.906,0-.91.455-3.371,3.46-8.684a51.514,51.514,0,0,0,5.133-6.895c1.578-2.37,4.1-6.2,5.557-7.2C3297.46,519.623,3299.492,522.476,3296.852,527.82Z" transform="translate(-3221.654 -486.165)" fill="#fff"/>
            </g>
          </g>
          <g id="Group_296" data-name="Group 296" transform="translate(132.968 176.642)">
            <g id="Group_295" data-name="Group 295">
              <path id="Path_333" data-name="Path 333" d="M3270.335,641.8a3.677,3.677,0,0,1-2.053-.636c-23.833-15.888-49.062-107.074-51.094-136.491a3.318,3.318,0,1,1,6.62-.459c1.115,16.093,8.219,45.969,17.279,72.647,8.708,25.646,17.82,44.644,25.753,53.992-.025-.313-.039-.577-.039-.813,0-4.649.16-9.254.316-13.705.23-6.683.449-12.993.189-19.586-.24-5.977-1.551-14.964-2.937-24.475-2.485-17.056-5.3-36.391-3.326-47.313a3.916,3.916,0,0,1,2.363-3.013c2.385-.973,4.441.483,7.558,2.693,2.847,2.016,7.148,5.067,10.249,4.841,8.82-.243,10.469-2.652,14.879-9.091,1.238-1.8,2.635-3.847,4.4-6.13a3.32,3.32,0,0,1,5.251,4.063c-1.645,2.13-2.99,4.087-4.17,5.817-4.629,6.759-7.977,11.642-20.035,11.972-5.359.4-10.582-3.339-14.415-6.057h0c-.674,10.411,1.7,26.692,3.819,41.263,1.411,9.688,2.745,18.838,3,25.166.274,6.839.041,13.57-.185,20.083-.153,4.393-.31,8.938-.31,13.473,0,.292.122,1.338.212,2.1.559,4.789.9,7.683-1.481,9.136A3.5,3.5,0,0,1,3270.335,641.8Z" transform="translate(-3217.179 -501.122)" fill="#fff"/>
            </g>
          </g>
          <g id="Group_298" data-name="Group 298" transform="translate(132.965 115.666)">
            <g id="Group_297" data-name="Group 297">
              <path id="Path_334" data-name="Path 334" d="M3246.5,550.053c-1.429-2.46-5.376-6.043-15.822-6.224a77.882,77.882,0,0,1-4.132-18.89c-.758-6.53-1.486-10.842-2.033-13.97-.546-3.19-.883-4.921-.577-5.89.243-.942,1.519-2.37,3.551-4.768,1.853-2.127,4.253-4.889,7.472-8.99.545-.7,1.094-1.4,1.671-2.158a.027.027,0,0,0,.028-.028.709.709,0,0,1,.121-.184l.122-.122a1.875,1.875,0,0,0,.244-.424,1.022,1.022,0,0,0,.122-.275,2.966,2.966,0,0,0,.243-1.609,1.971,1.971,0,0,0-.062-.393.96.96,0,0,0-.091-.243c-.027-.063-.058-.153-.089-.243a2.824,2.824,0,0,0-.425-.789,4.015,4.015,0,0,0-.517-.518,1.9,1.9,0,0,1-.244-.153c-.028,0-.028-.031-.058-.031v-.028c-.031-.031-.063-.031-.091-.063a.547.547,0,0,0-.122-.09.031.031,0,0,1-.031-.031c-.059,0-.091,0-.122-.028s-.059-.031-.121-.063l-.271-.09a.666.666,0,0,0-.306-.09h-.028a2.479,2.479,0,0,0-.671-.094h-.3a.1.1,0,0,0-.089.031h-.095a1.312,1.312,0,0,0-.3.063c-.031-.031-.031,0-.06,0a2.251,2.251,0,0,0-.549.181.111.111,0,0,0-.09.031l-.032.031h-.06l-.031.028a.845.845,0,0,0-.366.275c-.031,0-.058.031-.089.059-.031,0-.031,0-.062.031a3.4,3.4,0,0,0-.545.577,3.053,3.053,0,0,1-.3.365c-3.92,5.1-6.746,8.323-8.81,10.689-1.365,1.609-2.429,2.857-3.249,4.042v.028c-2.457,3.492-2.367,5.678-1.244,12.118.518,3.037,1.244,7.228,1.974,13.574a87.176,87.176,0,0,0,3.767,18.435c-1.125.09-2.248.243-3.461.424-.063,0-.153.031-.216.031h-.028c-.031,0-.031,0-.062.031a.667.667,0,0,0-.244.031.558.558,0,0,0-.211.059,2.811,2.811,0,0,0-.609.275,2.5,2.5,0,0,0-.482.3c-.153.153-.306.275-.428.424-.09.122-.181.275-.274.4a.621.621,0,0,0-.181.3,2.406,2.406,0,0,0-.122.306,2.78,2.78,0,0,0-.153.515,2.926,2.926,0,0,0-.059.883c0,.09.031.181.031.243a3.286,3.286,0,0,0,3.763,2.794c1.064-.153,2.1-.274,3.1-.4.82-.09,1.581-.153,2.311-.181,3.584,6.863,7.652,9.23,10.505,10.022a9.134,9.134,0,0,0,2.672.393,8.009,8.009,0,0,0,6.439-2.975A7,7,0,0,0,3246.5,550.053Zm-5.709,3.857c-.212.3-.879.639-2.1.333a8.926,8.926,0,0,1-4.341-3.524c3.944.549,5.891,1.793,6.405,2.672C3240.939,553.73,3240.845,553.82,3240.786,553.911Z" transform="translate(-3217.178 -483.575)" fill="#fff"/>
            </g>
          </g>
          <g id="Group_300" data-name="Group 300" transform="translate(67.621 115.661)">
            <g id="Group_299" data-name="Group 299">
              <path id="Path_335" data-name="Path 335" d="M3208.289,512.871q-3.376,0-6.763-.167a3.321,3.321,0,0,1,.334-6.634c28.6,1.428,57.321-6.721,76.854-21.8a3.32,3.32,0,1,1,4.059,5.254C3263.578,504.343,3236.142,512.871,3208.289,512.871Z" transform="translate(-3198.375 -483.573)" fill="#fff"/>
            </g>
          </g>
          <g id="Group_302" data-name="Group 302" transform="translate(146.629)">
            <g id="Group_301" data-name="Group 301">
              <path id="Path_336" data-name="Path 336" d="M3323.466,462.16c-15.276-14.4-35.866-15.763-55.119-3.736a3.641,3.641,0,0,0-1.7,3.43,3.547,3.547,0,0,0,.154.667c-13.331,3.586-44.036,12.027-39.421,53.572.365,3.159,2.522,4.889,4.983,6.165a14.624,14.624,0,0,0-1.7,1.519c-4.979,5.133-2.366,16.823.456,22.96,2.645,5.831,5.984,8.837,9.688,8.594a6.328,6.328,0,0,0,1.245-.212c-.061.271-.092.577-.15.848-.152.671-.306,1.338-.456,2.005a32.446,32.446,0,0,1-1.4,4.281,18.25,18.25,0,0,1-2.43,4.313c-1.883,2.339-4.8,4.5-11.025.153a1.9,1.9,0,0,1-.244-.153c-.028,0-.028-.031-.059-.031v-.028c-.031-.031-.063-.031-.091-.063a.543.543,0,0,0-.122-.09.031.031,0,0,1-.031-.031c-.059,0-.091,0-.122-.028s-.059-.031-.121-.063l-.271-.09a.663.663,0,0,0-.306-.09h-.028a2.484,2.484,0,0,0-.67-.094h-.3a.1.1,0,0,0-.09.031h-.094a1.307,1.307,0,0,0-.3.062c-.031-.031-.031,0-.059,0a2.254,2.254,0,0,0-.55.181.11.11,0,0,0-.09.031l-.032.031h-.059l-.031.028a.839.839,0,0,0-.365.275c-.031,0-.058.031-.09.059-.031,0-.031,0-.063.031-.028,0-.059.031-.09.062a2.16,2.16,0,0,0-.577.6c-.059.094-.149.153-.18.275a3.383,3.383,0,0,0,.942,4.375,18.041,18.041,0,0,0,2.064,1.3h.031a3.474,3.474,0,0,0,.635.4,17.741,17.741,0,0,0,3.947,1.609,12.269,12.269,0,0,0,5.651.365,13.256,13.256,0,0,0,7.986-5.011,23.068,23.068,0,0,0,3.1-5.435c3.131,15.7,10.3,26.511,21.048,31.522,8.9,4.128,16.52,6.318,23.078,6.589a10.7,10.7,0,0,0,1.428.062c1.063,0,2.033-.062,3.037-.153h.028a23.694,23.694,0,0,0,6.5-1.581,3.212,3.212,0,0,0,.514-.212c0-.028.032-.028.032-.028a2.238,2.238,0,0,0,.4-.153c7.226-3.312,11.691-9.932,15.093-18.1.82-1.911,1.547-3.916,2.245-6.012,1.4-4.069,2.645-8.441,3.889-12.844,2.763-9.629,5.619-19.558,10.2-28.061C3348.7,508.167,3339.956,477.676,3323.466,462.16Zm-81.3,82.724a9.6,9.6,0,0,1-1.822,3.732c-1.122-.636-3.493-4.038-4.921-9.536-1.456-5.466-1.06-9.563,0-10.658,1.247-1.334,2.005-1.64,2.492-1.64a1,1,0,0,1,.7.275c2.37,2.1,3.916,8.472,4.191,15.7C3242.623,543.425,3242.441,544.154,3242.167,544.884Zm82.7-6.318c-3.4,7.652-5.741,15.912-8.017,23.9-1.216,4.163-2.37,8.232-3.645,12.059-.7,2.127-1.456,4.128-2.217,6.043-2.854,6.863-6.44,12.239-11.785,14.668-6.741,3.1-16.367,1.609-29.426-4.5-10.356-4.858-15.183-15.972-17.341-26.782a65.645,65.645,0,0,1-1-6.683q-.182-1.366-.274-2.641c-2.218-26.484,6.62-56.515,15.4-62.562,3.339-2.276,11.542-3.642,20.983-3.642a89.779,89.779,0,0,1,24.478,3.186c7.747,2.248,12.816,5.376,14.334,8.868,1.974,4.615-.365,27.332-2.613,34.5A3.335,3.335,0,0,0,3324.864,538.566Zm8.351-20.468c.758-8.2.82-16.521-.789-20.256-2.339-5.466-8.595-9.72-18.585-12.6-15.944-4.646-41.729-5.011-51.052,1.366-7.134,4.89-13.208,19.315-16.335,35.957-2.645-2.672-6.012-4.038-8.658-5.129-1.306-.549-3.551-1.491-3.825-2.068-4.01-36.078,22.167-43.091,34.74-46.462,3.826-1.036,5.922-1.613,7.229-2.916a3.63,3.63,0,0,0,1-3.433,6.062,6.062,0,0,0-.456-1.091c15.273-7.593,30.519-5.71,42.393,5.525C3330.361,477.766,3337.738,497.752,3333.214,518.1Z" transform="translate(-3221.11 -450.29)" fill="#fff"/>
            </g>
          </g>
        </g>
      </g>
    </g>
    <g id="Group_307" data-name="Group 307" transform="translate(3141.025 554.176)">
      <path id="Path_337" data-name="Path 337" d="M3279.806,975.494c-2.185-1.254-4.34-2.509-6.494-3.86a1.178,1.178,0,0,1-.289-.16c-3.121-1.929-6.207-3.889-9.261-5.949a259.522,259.522,0,0,1-28.329-21.9c-.8-.705-1.608-1.446-2.411-2.155a260.944,260.944,0,0,1-85.563-193.312c0-144.215,117.331-261.548,261.544-261.548a259.086,259.086,0,0,1,29.261,1.64c.466.052.931.118,1.4.174V481.94A268.1,268.1,0,0,0,3409,480.185c-147.749,0-267.977,120.224-267.977,267.977a266.724,266.724,0,0,0,68.362,178.553c1.835,2.057,3.7,4.083,5.6,6.047.483.546,1,1.06,1.511,1.574.967,1,1.93,2.026,2.926,2.992.967.994,1.96,1.96,2.958,2.926,1.255,1.251,2.54,2.474,3.861,3.7,1,.932,1.991,1.831,2.988,2.732,1.095,1,2.185,1.994,3.312,2.96,1.127.994,2.284,1.96,3.41,2.958,1.285,1.091,2.607,2.186,3.955,3.245,1.192,1,2.412,1.963,3.666,2.926,1.867,1.449,3.729,2.895,5.6,4.278,1.9,1.414,3.795,2.8,5.723,4.149,2.221,1.574,4.438,3.086,6.722,4.6,1.671,1.091,3.343,2.185,5.046,3.245.966.612,1.963,1.254,2.96,1.835.965.612,1.96,1.22,2.957,1.8a6.324,6.324,0,0,0,.869.546c2.283,1.352,4.567,2.638,6.881,3.924-.159-2.346-.319-4.664-.448-6.912A5.337,5.337,0,0,1,3279.806,975.494Z" transform="translate(-3141.026 -480.185)" fill="#fff"/>
      <g id="Group_305" data-name="Group 305" transform="translate(52.822 77.4)">
        <path id="Path_338" data-name="Path 338" d="M3288.966,502.458v7.256c-72.31,19.082-126.455,93.935-126.455,183.175,0,52.672,19.437,103.331,53.267,138.937l1.519,1.536a166.322,166.322,0,0,0,17.615,15.725c1.911,1.5,3.826,2.909,5.769,4.281,1.519,1.088,2.854,1.981,4.222,2.877l.546.351v.671a1.607,1.607,0,0,0,.031.386c.06,1.6.149,3.131.244,4.7l.149,2.683-1.852-1.213c-1.456-.928-2.884-1.856-4.34-2.846-.185-.129-.424-.288-.667-.48-.487-.351-1.126-.8-1.762-1.244-.518-.354-1.063-.737-1.613-1.154l-.243-.16c-1.06-.764-2.123-1.564-3.155-2.363-1.46-1.119-2.857-2.207-4.253-3.357-1.214-.991-2.4-1.981-3.615-3-1.153-1.025-2.338-2.078-3.52-3.134-.793-.7-1.582-1.408-2.311-2.141-.848-.737-1.668-1.536-2.489-2.332l-2.157-2.175c-.667-.639-1.307-1.341-1.974-2.012-.726-.8-1.366-1.439-2-2.109-.821-.9-1.641-1.79-2.43-2.718-.639-.706-1.279-1.407-1.883-2.141-.428-.479-.883-1.025-1.37-1.567l-.455-.577c-.333-.382-.667-.764-.969-1.182-1.186-1.407-2.371-2.877-3.524-4.379-27.759-35.765-43.062-81.887-43.062-129.86C3156.226,599.719,3213.137,521.665,3288.966,502.458Z" transform="translate(-3156.226 -502.458)" fill="#fff"/>
      </g>
      <g id="Group_306" data-name="Group 306" transform="translate(345.458 310.095)">
        <path id="Path_339" data-name="Path 339" d="M3375.243,569.419c-.486,2.1-1.005,4.16-1.582,6.255-9.594,35.137-28.939,68.3-56.028,95.388a217.957,217.957,0,0,1-75.283,49.381c-.64.271-1.276.514-1.915.758v-6.863c1.487-.577,2.947-1.154,4.433-1.79a210.612,210.612,0,0,0,68.3-45.919c25.844-25.844,44.37-57.579,53.721-90.953.58-2.1,1.126-4.16,1.64-6.255Z" transform="translate(-3240.436 -569.419)" fill="#fff"/>
      </g>
      <path id="Path_340" data-name="Path 340" d="M3437.945,560.478a267.062,267.062,0,0,1-77.076,187.859l-.181.181a160.692,160.692,0,0,1-39.206,28.944c-8.079,4.281-16.335,8.229-24.538,11.569a.031.031,0,0,0-.031.031c-20.864,8.535-41.482,13.271-58.732,10.265a3.843,3.843,0,0,1-.577-.153.9.9,0,0,0,.271.031,3.309,3.309,0,0,0,3.5-3.128c.028-.608.028-1.64,0-2.978,19.677,3.645,50.775-8.987,72.581-19.738a164.623,164.623,0,0,0,48.71-36.231,261.049,261.049,0,0,0,64.351-128.276c.4-2.064.758-4.16,1.092-6.255a260.1,260.1,0,0,0,3.4-42.121c0-1.49-.059-2.978-.091-4.465h6.44C3437.886,557.5,3437.945,558.988,3437.945,560.478Z" transform="translate(-2901.984 -292.505)" fill="#fff"/>
    </g>
  </g>
</svg>
