<?xml version="1.0" encoding="utf-8"?>
<!-- Generator: Adobe Illustrator 19.0.0, SVG Export Plug-In . SVG Version: 6.00 Build 0)  -->
<svg version="1.1" id="Layer_1" xmlns="http://www.w3.org/2000/svg" xmlns:xlink="http://www.w3.org/1999/xlink" x="0px" y="0px"
	 viewBox="0 0 500 303" style="enable-background:new 0 0 500 303;" xml:space="preserve">
<style type="text/css">
	.st0{fill:#E6E7E8;}
	.st1{opacity:0.2;}
	.st2{fill:#010101;}
	.st3{fill:url(#XMLID_3_);}
	.st4{fill:url(#XMLID_5_);}
	.st5{fill:url(#XMLID_6_);}
	.st6{fill:url(#XMLID_7_);}
	.st7{fill:url(#XMLID_8_);}
	.st8{fill:url(#XMLID_9_);}
	.st9{fill:url(#XMLID_10_);}
	.st10{fill:url(#XMLID_11_);}
	.st11{fill:#101D2B;}
	.st12{fill:url(#XMLID_12_);}
	.st13{fill:url(#XMLID_17_);}
	.st14{fill:#FFFFFF;}
</style>
<g id="XMLID_2_">
	<path id="XMLID_247_" class="st0" d="M447.9,33.1c0,0,5.3,131.8,22.3,201.7c0,0-438.6,30.4-443.4,31.1c-4.8,0.7,13.9-85,0-143.8
		L447.9,33.1z"/>
	<g id="XMLID_201_" class="st1">
		<path id="XMLID_246_" d="M324.5,78.9h10.9c1.4,0.4,2.8,0.7,4.3,1.2l0.4,0.7c-9.3-2.5-19.5-1.4-28.1,3.1c-0.3-0.1-1-0.2-1.3-0.3
			C314.8,80.9,319.7,79.9,324.5,78.9z"/>
		<path id="XMLID_245_" d="M311.9,83.8c8.6-4.5,18.8-5.6,28.1-3.1c9.8,2.8,18.4,9.6,23.3,18.6c4.8,8.6,5.7,19.1,3.1,28.5
			c7.9,2.7,15.8,5.5,23.7,8.1c0.1,6.3,4.1,12,9.8,14.6c1.4,0.9,3.3,1.4,4,3c0.1,1.8-2,2.4-3.3,3c-2.9,1-6,1.5-9,2
			c-10.3-6.3-20.5-12.7-30.8-19.1c-2.9,3.9-6.4,7.4-10.5,9.9c-0.2,0.1-0.6,0.4-0.8,0.5c-3.4-1.3-7-2.3-10.6-2.4
			c-1.4-0.1-2.8-0.1-4.1-0.5c2.4-1.3,5.3-1.6,7.7-3.2c6-3.3,10.6-9.1,12.4-15.8c2.1-7.5,0.4-15.8-4.2-22c-5.9-8.2-17-12.2-26.8-9.6
			c-8,2-14.9,8.1-17.8,15.8c-2.4,6.2-2.2,13.4,0.5,19.5c3.3,7.7,10.6,13.5,18.9,14.9c2.6,0.6,5.4,0.3,8,0.7c-2.3,0.9-4.7,1-7,1.8
			c-3.2,1-6,2.7-9,4.2c-8.7-3.3-16.3-9.5-20.7-17.8c-5.8-10.6-6.1-23.9-0.8-34.8C299.2,93.6,305,87.7,311.9,83.8z"/>
		<path id="XMLID_244_" d="M402.7,103c10.7-5.4,21.1-11.2,31.8-16.6c1.1,5.2,2.2,10.3,3.4,15.5c-17.4,6.1-34.8,11.9-52.2,17.8
			c-0.9-2.1-1.8-4.3-2.7-6.4c6.1-3.2,12.3-6.4,18.4-9.6c0.1-0.1,0.4-0.2,0.5-0.3C402.1,103.3,402.5,103.1,402.7,103z"/>
		<path id="XMLID_243_" d="M220.1,91.5c5.3-3.5,12.4-3.5,18-0.9c6.4,2.8,11.4,8,15.6,13.5c-0.8-3.9-0.6-8.7,2.7-11.5
			c4-3.3,9.5-3.3,14.4-2.9c3,0.4,7.1,1.5,7.7,5c0.4,3.8-2.4,7.8-6.1,8.9c-3.2,0.7-5.3-2.3-5.3-5.2c-2.9-0.1-5.3,1.7-6.5,4.2
			c-2.9,5.5-3.2,11.9-3.5,18.1c-2.1-6.6-5-13.4-10.6-17.8c-2.7-2.2-6-3.9-9.6-4.1c2.3,1,2.3,3.9,0.8,5.6c-1.8,2.2-4.1,4.2-6.9,5.1
			c-6.2,1.2-12.1-3.7-13.7-9.5C216,96.8,217.3,93.2,220.1,91.5z"/>
		<path id="XMLID_242_" d="M438.2,111.7c1.4-1.3,3.5-0.5,4,1.2c1.6,4.6,1,9.6,0.6,14.3c-0.5,4.2-2.8,8.3-6.6,10.3
			c-8.8,5.3-19.8,5.5-29.3,2.4c-2.6-0.9-5.9-1.5-7-4.4c-1.1-3.4-0.3-7.1,0.9-10.3c0.9-2.1,3.5-1.5,5.3-1.5
			C418,124.5,429.3,119.1,438.2,111.7z"/>
		<g id="XMLID_238_">
			<path id="XMLID_239_" d="M66.6,120.7c4-2.3,9-2.1,13,0c3.6,2.3,6.2,6.2,6.4,10.5c0.3,5.8-2.9,12.2-8.7,14
				c-6.2,1.4-13.4-1.6-16.2-7.5c-1.1-2.3-1.3-4.9-1.2-7.4C60.7,126.4,63,122.7,66.6,120.7z M66.9,133.1c-0.1,2.4,1.3,4.7,3.4,5.8
				c3,1.5,7.1,0.2,8.4-3.1c0.8-2.3,0.4-5-1.5-6.7c-1.5-1.8-4.1-0.9-6.1-0.8C69.4,129.6,67.3,130.9,66.9,133.1z"/>
		</g>
		<path id="XMLID_237_" d="M107.1,147.3c1.2-0.6,2.9-0.8,3.9,0.4c1.2,1.5,1.3,3.5,1.4,5.4c0,4-0.7,7.9-1.8,11.7
			c-1.3,4.3-4.8,7.8-9.1,9.3c-12,4.7-25.6,3.8-37.6-0.6c-2.8-1.1-6.3-1.9-7.4-5c-1-3.7,0.5-7.5,2.2-10.7c1.3-2,4-1.3,5.9-1.1
			c12.1,1.8,24.5-0.6,35.5-5.7C102.5,149.8,104.7,148.3,107.1,147.3z"/>
		<path id="XMLID_236_" d="M222.4,235.4c1.6-0.5,3.1,0.3,4.5,0.9c10.1,4.7,22,4.5,32.4,0.9c1.6-0.4,4.1-1.5,5.1,0.5
			c0.9,4.9-1.6,9.4-3.5,13.7c-1.8,4-5.1,7.6-9.5,8.5c-10.6,2.5-21.6-1.7-29.8-8.3c-2-1.7-4.7-3.5-4.4-6.5
			C217.4,241.4,219.5,237.7,222.4,235.4z"/>
		<path id="XMLID_235_" d="M348.8,243.4c2.4-1.2,4.7-2.5,7.1-3.6c1,4.7,2.1,9.4,3.1,14.1c-15.7,5.4-31.5,10.7-47.2,16.1
			c-0.8-1.9-1.7-3.8-2.5-5.8c12.7-6.7,25.4-13.4,38.2-20C347.9,243.9,348.3,243.7,348.8,243.4z"/>
		<path id="XMLID_234_" d="M339.6,80.1c14,3.4,25.8,14.7,29.6,28.6c2,6.4,1.7,13.2,1,19.8c7.7,2.8,15.5,5.3,23.3,8.1
			c-0.8,4.6,1.1,9.5,5,12.2c2.7,2.1,6.9,2.8,8.2,6.4c1.1,3.3-1.8,6-4.7,6.9c-3.7,1.2-7.7,2.4-11.6,2.2c-4.1-2.2-8-4.8-11.9-7.3
			c-3.1-2.7-5.9-5.7-9.3-8.1c0,0.6-0.1,1.8-0.1,2.4c-2.6-1.6-5.2-3.2-7.8-4.8c-2,2.3-4.1,4.3-6.5,6.2c-1.7-0.9-3.3-1.9-4.7-3.2
			c4.2-2.5,7.6-6,10.5-9.9c10.3,6.3,20.5,12.7,30.8,19.1c3-0.5,6.1-1,9-2c1.3-0.6,3.4-1.2,3.3-3c-0.6-1.7-2.6-2.2-4-3
			c-5.7-2.6-9.6-8.3-9.8-14.6c-7.9-2.7-15.8-5.4-23.7-8.1c2.5-9.5,1.6-19.9-3.1-28.5c-4.8-9-13.4-15.8-23.3-18.6L339.6,80.1z"/>
		<path id="XMLID_233_" d="M292.6,102.3c3.8-8,10.3-14.6,18.1-18.8c0.3,0.1,1,0.2,1.3,0.3c-6.9,3.9-12.8,9.8-16.2,17
			c-5.3,10.8-5,24.2,0.8,34.8c4.4,8.2,12,14.5,20.7,17.8c-1.7,1.2-3.3,2.6-4.8,4.1c-9.3-4.3-16.9-12.1-20.7-21.6
			C287.2,125.2,287.5,112.6,292.6,102.3z"/>
		<path id="XMLID_232_" d="M404.1,101.2c11.4-5.9,22.7-12,34.2-17.8c1.6,7.2,3.1,14.4,4.8,21.5c-19,6.6-38,13-57.1,19.5
			c-1.6-3.7-3.2-7.5-4.7-11.2c6.2-3.4,12.6-6.3,18.6-10c0.4,0.1,1.1,0.3,1.5,0.4c-6.1,3.3-12.2,6.4-18.4,9.6
			c0.9,2.1,1.8,4.3,2.7,6.4c17.4-5.9,34.9-11.8,52.2-17.8c-1.2-5.2-2.3-10.3-3.4-15.5c-10.7,5.4-21.2,11.1-31.8,16.6l-1.5,0.2
			C402.1,102.4,403.1,101.8,404.1,101.2z"/>
		<g id="XMLID_228_">
			<path id="XMLID_229_" d="M217.5,90.7c4.6-3.9,11.2-4.8,17-3.6c6.5,1.4,11.9,5.5,16.5,10.1c1.2-5.2,6-8.6,11.1-9.3
				c5.1-0.7,10.8-0.8,15.4,1.8c3.6,2,4.7,6.8,2.9,10.4c-1.7,4-5.9,8-10.6,6.7c-2.4-0.5-3.9-2.6-5.1-4.6c-2.9,3-3.7,7.3-4.5,11.2
				c-0.9,4.6-1.6,9.3-2.4,13.9c-1.6-3.1-3.2-6.2-4.6-9.3c-0.3-0.8-1-1.3-1.7-1.7c0.2,0,0.7,0.1,0.9,0.1c-2.3-5.2-5.8-10.3-11-12.9
				c-1.4,4.1-5,7.1-8.9,8.9c-7.1,2.5-14.7-2.6-17.4-9.1C213.1,99.1,213.9,93.7,217.5,90.7z M220.1,91.5c-2.8,1.8-4.1,5.4-3.2,8.5
				c1.6,5.7,7.6,10.7,13.7,9.5c2.8-0.8,5.1-2.9,6.9-5.1c1.5-1.7,1.5-4.6-0.8-5.6c3.5,0.2,6.8,1.9,9.6,4.1
				c5.6,4.4,8.5,11.2,10.6,17.8c0.3-6.1,0.6-12.5,3.5-18.1c1.2-2.5,3.7-4.3,6.5-4.2c0.1,2.8,2.2,5.8,5.3,5.2
				c3.6-1.1,6.5-5.1,6.1-8.9c-0.6-3.5-4.7-4.6-7.7-5c-4.9-0.4-10.4-0.4-14.4,2.9c-3.3,2.8-3.5,7.6-2.7,11.5
				c-4.2-5.5-9.2-10.7-15.6-13.5C232.5,88,225.4,88,220.1,91.5z"/>
		</g>
		<path id="XMLID_227_" d="M323.6,96.4c9.8-2.6,20.8,1.4,26.8,9.6c4.7,6.2,6.3,14.5,4.2,22c-1.8,6.7-6.3,12.5-12.4,15.8
			c-0.3-0.1-1-0.2-1.3-0.2c6.4-3.9,10.9-10.8,11.2-18.4c0.7-10.3-6.5-20.3-16.5-22.9c-9.9-3-21.3,2.1-25.9,11.2
			c-4.6,8.5-2.8,19.8,4.2,26.5c3.5,3.5,8.2,5.5,13,6.4c-0.4,0-1.3,0.1-1.7,0.1c-8.2-1.4-15.5-7.2-18.9-14.9
			c-2.7-6.1-2.9-13.2-0.5-19.5C308.8,104.5,315.6,98.4,323.6,96.4z"/>
		<path id="XMLID_226_" d="M79.7,120.8c3.6,1.4,6.6,4.1,8.3,7.6c2.2,4.5,1.9,10-0.6,14.3c-2.4,4.1-6.8,6.9-11.5,7.3
			c-5.3,0.5-10.7-1.9-13.7-6.2c-2.7-3.8-3.5-8.8-2.1-13.2c-0.1,2.5,0.1,5.1,1.2,7.4c2.8,5.9,10,8.9,16.2,7.5c5.8-1.8,9.1-8.2,8.7-14
			C85.9,126.9,83.3,123,79.7,120.8z"/>
		<path id="XMLID_225_" d="M66.9,133.1c0.5-2.3,2.6-3.5,4.2-4.8c2-0.1,4.5-1,6.1,0.8c1.9,1.7,2.2,4.4,1.5,6.7
			c-0.8-2.5-3.5-4.7-6.1-3.3c-2.6,1-2.2,4.1-2.3,6.4C68.2,137.8,66.8,135.5,66.9,133.1z"/>
		<path id="XMLID_224_" d="M347.1,243.7c2.7-2.3,6.1-3.4,9.1-5.2c1.4,6.6,3,13.1,4.3,19.7c-17.3,5.7-34.4,11.8-51.7,17.5
			c-1.4-3.4-2.9-6.7-4.3-10.1c11.6-6.1,23.2-12.1,34.7-18.2c2.2-1.2,4.6-2.3,6.7-3.7c0.4,0.1,1.1,0.4,1.4,0.6
			c-12.7,6.7-25.5,13.3-38.2,20c0.8,1.9,1.7,3.8,2.5,5.8c15.7-5.4,31.5-10.7,47.2-16.1c-1-4.7-2.1-9.4-3.1-14.1
			c-2.4,1.2-4.7,2.5-7.1,3.6L347.1,243.7z"/>
		<g id="XMLID_214_">
			<path id="XMLID_215_" d="M101.4,103.9c5.1-2.7,11-4.1,16.9-3.5c5.8,0.8,11.3,3.9,14.7,8.7c2.6,3.5,3.8,7.7,5.4,11.8
				c1.9,4.9,5.4,8.9,7.8,13.5c8.2,15.2,17.6,29.7,28.4,43.2c-0.9-20.3-8.4-39.7-18.4-57.1c-2.4-3.7-1.6-8.8,1.7-11.7
				c4.8-4.2,11.6-5.9,17.9-5.7c5.2,0.2,10.6,2.2,13.8,6.4c2.3,2.8,3.3,6.3,3.7,9.9c1.5,11.4,2.6,22.8,4.8,34.1
				c1.8,8.9,3.9,17.8,6.6,26.5c2.6,8.3,5.7,16.5,10.4,23.9c2.2,3.3,4.8,6.7,8.5,8.5c2.1-0.8,3.6-2.9,4.2-5c1-4.8-1-9.5-3-13.7
				c-1.4-2.9-3.3-5.5-5-8.3c-2.1-3.7-1.9-9,1.4-12c4-3.6,9.7-4,14.9-4c4.5,0,9.7,1.2,12.4,5.2c2.5,3.9,1.8,8.7,2.8,13
				c1.3,9.8,6.4,19.2,14.5,25c1.5-1.9,3.2-4,3-6.6c-0.3-5.7-2.2-11.3-4.9-16.4c-1.4-2.8-3.5-5.6-3-8.9c0.2-3.5,3.1-6.2,6.2-7.5
				c5.3-2.3,11.7-3.3,17-0.5c4.3,2.3,6.6,7.2,6.8,12c0.3,5.2,1.5,10.3,3.9,14.9c3.1-14.9,6.9-30.9,17.9-42.2c1.5-1.5,3-2.9,4.8-4.1
				c3-1.4,5.8-3.2,9-4.2c2.3-0.8,4.8-0.9,7-1.8c-2.7-0.4-5.4-0.1-8-0.7c0.4,0,1.3-0.1,1.7-0.1c4.8,0.4,9.7-0.6,14-2.9
				c0.3,0.1,1,0.2,1.3,0.2c-2.3,1.6-5.2,1.9-7.7,3.2c1.3,0.5,2.7,0.5,4.1,0.5c3.7,0.1,7.2,1.1,10.6,2.4c0.2-0.1,0.6-0.4,0.8-0.5
				c1.4,1.3,3,2.3,4.7,3.2c5.8,3.3,10.7,8.3,13.4,14.5c0.4-5.3,0.5-10.6,0.8-15.9c0-0.6,0.1-1.8,0.1-2.4c3.4,2.4,6.2,5.4,9.3,8.1
				c4.4,4,9,8.2,14.7,10.3c5.7,0.4,11.8-0.7,16.7-3.9c4.7-3.3,6.7-9.1,7.5-14.5c-5.7-0.5-11.4-1.7-16.7-4c-3.7-1.6-5.9-5.6-5.9-9.6
				c-0.1-3.6,0.5-7.3,2.1-10.6c1.6-3,5.4-3.9,8.6-3.5c10,0.9,19.9-3,27.6-9.2c2-1.6,4.2-3.4,6.9-3.4c3.1-0.1,5.9,2.3,6.8,5.2
				c1.2,3.7,1.3,7.7,1.1,11.6c-0.2,3.9-0.6,8-2.5,11.5c-1.3,2.6-3.4,4.6-5.6,6.4c1.1,3.5,2.5,7,4.9,9.9c1.7,2.1,3.7,4,4.5,6.7
				c1.8,5.3-0.6,11.6-5.5,14.3c-3.8,2.2-8.6,1.7-12.5-0.1c-2.8,3.6-6.2,6.6-9.9,9.1c14.8,5,30.2,8.9,45.8,9.5v6.4
				c-2.4,2.4-3.4,5.8-4.9,8.8c-1.2,2.4-2.5,4.7-3.8,7c-7.8-1.3-16-3.3-23.6-0.5c-11.2,4.6-20.8,12.2-31.4,17.9
				c-7,4.1-14.7,7.5-23,8.1c-5.3,0.3-10.3-1.7-14.9-4.1c-5.3-2.6-9.9-6.6-13.7-11.1c-9.8,8.6-22.5,13.3-35.5,13.7
				c0.1,3.1,0.1,6.5-1.8,9.2c-2.4,3.8-7.1,5.9-11.5,5.2c-4.6-0.6-8.8-4.2-9.8-8.8c-0.9-3.3-0.8-6.7-1.5-10.1c-1.8-1.8-4.1-3-6-4.6
				c-4.4,4.6-10.2,7.6-16.4,9c0.2,3.7-0.2,7.4-1.6,10.8c-2.3,5.9-5.1,12.4-11.1,15.5c-6.5,3.1-14.2,3-21,1
				c-7.3-1.9-13.9-5.9-19.5-11c-2.1-1.9-3.6-4.5-3.6-7.4c-0.2-3.3,1.3-6.4,2.8-9.2c-3.2-1.1-6.2-2.7-8.8-4.9
				c-4.7-4-8.9-8.7-12.4-13.8c-4.1,7.1-9.1,13.5-14.5,19.6c-18,0.9-36.1,0.7-54.1,0.3c9.1-5.8,18.9-10.4,27.2-17.2
				c7.1-5.8,13.7-12.5,18.3-20.5c-3.1-0.2-6.2,0.2-9.2-0.6c-2.7-1.2-4.6-3.7-6.8-5.7c-14.2-14.3-27.1-29.9-38.7-46.5
				c1.4,5.9,0.5,12.1-1,17.9c-1.4,5.6-5.5,10.4-10.7,12.7c-8.8,3.8-18.7,4.8-28.2,3.5c2.5,3.8,3.1,9.1,0.4,13
				c-2.5,3.4-5.4,6.7-6.4,10.9c-1,3.2,0.7,6.9,3.8,8.2c4.1,1.7,8.7,1.2,12.9,0.1c5-1.5,10-4,13.1-8.3c1.1-1.5,2.7-3.2,2-5.3
				c-0.9-2.6-3.6-4.1-4.7-6.7c-1.7-3.9-0.4-8.5,2.6-11.4c4.2-4.2,10-6.2,15.4-8.2c4.7-1.7,10.9-1.7,14.1,2.8
				c4.3,6.5,7.4,14.3,6.8,22.2c-0.4,7.9-4.1,15.2-8.9,21.2c-6,7.6-13.2,14.7-22.5,17.9c-14.3,5.7-30,7.1-45.2,5
				c-5.3-0.8-10.6-2-15.6-4c-8.8-3.9-16.9-10.3-21.4-19.1c-2-3.8-3.2-8-3.9-12.2v-7.4c1.1-7.4,3.8-14.6,7.8-20.9
				c2.2-3.4,5.4-5.9,9.2-7.4c5.3-2.1,11.2-1.5,16.7-0.5c-2.4-5.4-0.6-11.6,2.2-16.4c2.1-3.2,6.3-4,9.8-3.3c13.5,2.2,27.3-1.3,39-8
				c3.1-1.9,7-2,10.1-0.2c-5.7-8-12.6-15.3-17.2-24c-2.1-3.3-2.8-7.4-1.7-11.2C95.9,107.4,98.7,105.4,101.4,103.9z M100.8,107.8
				c-2.3,1.7-2,5.1-1.1,7.5c3.3,6.7,7.9,12.7,12.6,18.5c4.3,5.3,8,11,11.9,16.5c5.1,6.8,10.2,13.6,15.8,20
				c7.4,8.5,14.7,17.1,23.2,24.5c5.1,0.4,10.4,0.8,15.4-0.3c-2.4,6.6-6.3,12.6-10.9,17.9c-7.1,8.3-15.9,15-25.3,20.7
				c7.8,0.4,15.6,0,23.4,0.1c3.8-0.4,7.6,0,11.4-0.5c6.7-7.4,12.8-15.7,16.3-25.1c0.7-0.2,0.7,1.1,1.1,1.5
				c3.3,7.2,8.5,13.4,14.5,18.6c3.9,3.5,9.2,5.4,14.4,5.2c5.8-0.7,11.7-2.7,16-6.8c2.3-2.1,3.8-4.8,5.5-7.3
				c3.2,4.1,6.8,8.1,11.3,10.8c3.4,2.1,7.5,4.2,11.6,2.8c7-1.4,13.4-5.5,17.2-11.6c3.3,3.4,7.1,6.3,11.2,8.6
				c0.4,4.3,0.4,8.7,1.7,12.9c1.7,4.8,8.8,5.8,11.9,1.9c3-3.3,1-8,1.2-11.9c5.5-0.1,11-0.4,16.4-1.8c9.4-2.2,18.1-7.3,24.6-14.5
				c2.8,3.4,5.4,6.9,8.8,9.6c4.2,3.7,9.5,5.8,14.8,7.4c5.8,1.4,11.7-0.5,17-2.7c13.7-6.1,25.3-15.9,39-21.9
				c7.6-3.5,16.2-2.4,24.2-0.9c2.4-4.1,4.2-8.4,6.3-12.6c-10.5-0.7-20.8-3-30.9-5.9c-7.6-2.3-15.4-4.6-22.7-7.8c5-1.6,10-3.7,14-7.1
				c3.4-2.8,5.8-6.5,8-10.2c0.8,1.1,1.4,2.4,2.5,3.3c3,2.3,7.7,2,10.2-0.9c2.5-2.8,2.4-7.6-0.4-10.2c-3.6-3.7-5.9-8.4-7.5-13.2
				c-3.9,1.2-7.5,2.9-11.4,4.3c-1,0.4-2.3,0.7-2.4,2c-1,5-2.8,10-6.4,13.7c-5.2,5.4-13.1,7.1-20.3,7.2c-3.7,0.2-6.9-1.9-9.9-3.8
				c-4.2-2.7-7.7-6.2-11.7-9.3c-0.1,7-0.7,14.3,1.4,21.1c1.5,4.1,3.6,8.5,7.4,11c9.6,6.2,20.9,8.5,31.7,11.7
				c-5.9,4.8-12.6,8.4-19.5,11.6c-5.3,2.1-11.2,4.4-16.8,2.7c-5.7-2.6-10.5-7.4-12.8-13.3c-0.7-1.6-1.1-3.3-0.6-5
				c1.9-7.1,2.8-14.5,1.9-21.8c-0.9-6.6-4-13.2-9.4-17.3c-6.5-5.1-14.9-8.4-23.3-7.3c-9.8,1.1-18.7,7.4-23.5,15.9
				c-7.8,13.2-10.2,28.5-12.5,43.4c-6.8-6.9-11-16.3-11.4-26c-0.1-3.1-1.2-6.6-3.9-8.4c-3.1-1.9-6.9-1.7-10.3-0.7
				c-2,0.6-4.2,1.3-5.7,2.9c-1.3,1.4-0.8,3.6,0.1,5.2c3.7,6.4,6.6,13.5,7,21c0.3,5.2-3,10-7.4,12.4c-5.6-2.3-9.5-7.3-12.9-12.1
				c-5.1-7.5-6.6-16.6-7.4-25.5c-0.1-2.2-1.4-4.4-3.6-5.2c-4.2-1.6-8.9-1.2-13.3-0.5c-2.4,0.5-5.2,1.8-5.6,4.5
				c-0.5,3.2,2,5.5,3.4,8.1c3.3,5.8,6.6,12.2,6.1,19c-0.3,5-4.1,9.2-8.5,11.2c-7.6-2.1-12.2-9.4-15.8-15.9c-7-13.5-10.7-28.3-14-43
				c-2.9-13.1-4.1-26.4-5.9-39.7c-0.4-4-2.7-7.8-6.4-9.6c-4.2-1.9-9.1-1.9-13.5-0.8c-2.9,0.8-6,2-8,4.3c-1.3,1.4-1.3,3.5-0.3,5.1
				c7,12.3,13,25.4,16.2,39.3c2.5,10.5,3.3,21.2,3.4,32c-4.3-3.7-8.5-7.6-11.7-12.3c-9.6-12.6-18.3-25.8-25.7-39.8
				c-2.4-4.5-5.7-8.3-7.7-13c-1.8-3.8-2.6-8-5-11.5c-2.8-4.3-7.6-7.2-12.8-7.4C111.2,102.6,105.3,104.2,100.8,107.8z M438.2,111.7
				c-8.9,7.4-20.3,12.8-32.1,12c-1.8,0-4.5-0.6-5.3,1.5c-1.2,3.3-2,7-0.9,10.3c1,2.9,4.4,3.5,7,4.4c9.6,3.1,20.6,2.9,29.3-2.4
				c3.8-2,6.1-6.1,6.6-10.3c0.5-4.7,1-9.7-0.6-14.3C441.8,111.1,439.6,110.3,438.2,111.7z M107.1,147.3c-2.4,1-4.6,2.5-7,3.5
				c-11,5.1-23.5,7.5-35.5,5.7c-2-0.2-4.6-0.8-5.9,1.1c-1.8,3.2-3.2,7-2.2,10.7c1.1,3.1,4.7,3.9,7.4,5c12,4.4,25.6,5.4,37.6,0.6
				c4.2-1.5,7.8-5,9.1-9.3c1.1-3.8,1.8-7.7,1.8-11.7c-0.1-1.8-0.2-3.9-1.4-5.4C110,146.5,108.3,146.7,107.1,147.3z M39.5,175.7
				c-3.8,0.9-7.2,3.3-9.2,6.7c-5.4,8.7-8.8,19.6-5.6,29.7c3.1,10.7,12.1,18.7,22.2,22.8c8.2,2.8,17,4.3,25.7,4.1
				c12.1,0.4,24.3-2.4,35.3-7.4c4.9-2.6,9-6.5,12.8-10.5c5-5.6,9.6-12.1,10.9-19.7c1.2-6.3-0.4-12.9-3.4-18.5
				c-1.2-2.2-2.4-5.2-5.2-5.5c-4.6-0.4-8.9,1.9-13,3.6c-3.4,1.6-7.4,3.8-8.2,7.8c-0.5,2.4,1.5,4.1,2.9,5.7c2.3,2.5,3.5,6.3,2,9.5
				c-2.5,5-6.7,9.1-11.8,11.5c-6.7,3.2-14.8,5.1-22,2.3c-4.3-1.5-7.1-6-7.2-10.5c0.2-5.5,3.3-10.2,6.6-14.4c1.3-1.5,2.2-3.5,1.8-5.5
				c-0.2-2.9-2.7-5-5.3-5.8C59.2,178.4,49.6,173.7,39.5,175.7z M371.3,184.1c-0.2,5.4-1.3,10.7-2.4,15.9c0.5,4.3,3.6,7.9,7,10.4
				c3.5,2.6,8.2,2.5,12.1,1.2c5.2-1.7,10.3-4.1,14.9-7.2c-8.3-2.5-16.8-5.2-24.1-10.2C375.2,191.8,373.2,187.9,371.3,184.1z
				 M235.8,236.4c6,1.4,12.3,1,18.2-0.5c-2.8-2.5-6.1-4.5-8.6-7.4C242.8,231.8,239.4,234.3,235.8,236.4z M222.4,235.4
				c-2.8,2.3-4.9,6-5.2,9.7c-0.3,3,2.4,4.8,4.4,6.5c8.2,6.7,19.2,10.8,29.8,8.3c4.4-0.9,7.7-4.5,9.5-8.5c1.9-4.3,4.4-8.9,3.5-13.7
				c-1-2-3.5-0.9-5.1-0.5c-10.4,3.5-22.3,3.8-32.4-0.9C225.5,235.7,223.9,234.8,222.4,235.4z"/>
		</g>
		<g id="XMLID_210_">
			<path id="XMLID_211_" d="M317.6,196.9c1.8-3.6,5-6.9,9.1-7.8c4.6-1,8.6,3.4,9.2,7.6c0.4,4.7-2.4,9.1-5.5,12.4
				c-4.7,4.9-11.7,6.7-18.3,6.9C313.3,209.5,314.6,202.8,317.6,196.9z M322.3,200.3c-2.2,3.8-3.4,8.2-4.3,12.5
				c6-1.1,11.4-5.5,13.2-11.4c0.8-2.2-0.6-4.5-2.5-5.6C325.8,195.6,323.6,198,322.3,200.3z"/>
		</g>
		<g id="XMLID_206_">
			<path id="XMLID_207_" d="M100.8,107.8c4.5-3.6,10.4-5.2,16.1-4.9c5.1,0.2,10,3.1,12.8,7.4c2.4,3.5,3.2,7.7,5,11.5
				c2,4.6,5.4,8.5,7.7,13c7.4,13.9,16.1,27.2,25.7,39.8c3.3,4.6,7.4,8.6,11.7,12.3c-0.1-10.7-0.9-21.5-3.4-32
				c-3.2-13.9-9.2-26.9-16.2-39.3c-1-1.5-1-3.7,0.3-5.1c2-2.4,5.1-3.5,8-4.3c4.4-1.2,9.3-1.2,13.5,0.8c3.7,1.7,6,5.6,6.4,9.6
				c1.8,13.2,3,26.6,5.9,39.7c3.3,14.7,7,29.6,14,43c3.6,6.5,8.2,13.8,15.8,15.9c4.5-2,8.2-6.2,8.5-11.2c0.5-6.9-2.8-13.2-6.1-19
				c-1.4-2.5-3.9-4.9-3.4-8.1c0.4-2.7,3.2-3.9,5.6-4.5c4.4-0.7,9.1-1.2,13.3,0.5c2.1,0.8,3.4,3,3.6,5.2c0.8,8.8,2.3,18,7.4,25.5
				c3.3,4.9,7.3,9.8,12.9,12.1c4.4-2.4,7.8-7.2,7.4-12.4c-0.5-7.5-3.3-14.6-7-21c-0.9-1.5-1.4-3.7-0.1-5.2c1.5-1.6,3.7-2.2,5.7-2.9
				c3.3-0.9,7.2-1.2,10.3,0.7c2.8,1.8,3.8,5.3,3.9,8.4c0.5,9.7,4.6,19.1,11.4,26c2.2-14.9,4.7-30.3,12.5-43.4
				c4.9-8.5,13.7-14.8,23.5-15.9c8.4-1.1,16.8,2.2,23.3,7.3c5.4,4.2,8.5,10.7,9.4,17.3c0.9,7.3-0.1,14.7-1.9,21.8
				c-0.5,1.7-0.1,3.4,0.6,5c2.2,5.9,7.1,10.7,12.8,13.3c5.7,1.7,11.6-0.6,16.8-2.7c6.9-3.1,13.6-6.8,19.5-11.6
				c-10.8-3.2-22.1-5.5-31.7-11.7c-3.9-2.5-5.9-6.8-7.4-11c-2.2-6.8-1.5-14-1.4-21.1c3.9,3,7.5,6.6,11.7,9.3c3,1.9,6.2,4,9.9,3.8
				c7.3-0.1,15.1-1.8,20.3-7.2c3.7-3.6,5.4-8.7,6.4-13.7c0.1-1.3,1.4-1.6,2.4-2c3.8-1.4,7.5-3,11.4-4.3c1.6,4.8,3.9,9.6,7.5,13.2
				c2.7,2.7,2.9,7.4,0.4,10.2c-2.5,2.9-7.3,3.2-10.2,0.9c-1.1-0.9-1.7-2.1-2.5-3.3c-2.2,3.7-4.6,7.4-8,10.2c-4,3.5-9,5.6-14,7.1
				c7.3,3.2,15,5.5,22.7,7.8c10.1,2.8,20.4,5.2,30.9,5.9c-2.2,4.2-3.9,8.6-6.3,12.6c-8-1.5-16.6-2.6-24.2,0.9
				c-13.7,6-25.3,15.8-39,21.9c-5.3,2.2-11.2,4.1-17,2.7c-5.3-1.5-10.6-3.7-14.8-7.4c-3.4-2.7-6.1-6.2-8.8-9.6
				c-6.5,7.1-15.1,12.3-24.6,14.5c-5.4,1.3-10.9,1.7-16.4,1.8c-0.2,3.9,1.8,8.6-1.2,11.9c-3.1,3.9-10.2,2.8-11.9-1.9
				c-1.2-4.2-1.3-8.6-1.7-12.9c-4.1-2.3-7.9-5.2-11.2-8.6c-3.8,6.1-10.2,10.2-17.2,11.6c-4.1,1.4-8.2-0.7-11.6-2.8
				c-4.5-2.7-8.1-6.7-11.3-10.8c-1.7,2.5-3.2,5.3-5.5,7.3c-4.3,4.1-10.1,6.1-16,6.8c-5.2,0.2-10.5-1.7-14.4-5.2
				c-5.9-5.2-11.2-11.4-14.5-18.6c-0.4-0.4-0.4-1.7-1.1-1.5c-3.6,9.4-9.6,17.7-16.3,25.1c-3.8,0.5-7.6,0.1-11.4,0.5
				c-7.8,0-15.6,0.4-23.4-0.1c9.3-5.7,18.1-12.4,25.3-20.7c4.6-5.3,8.5-11.3,10.9-17.9c-5.1,1-10.3,0.7-15.4,0.3
				c-8.5-7.4-15.9-16-23.2-24.5c-5.5-6.5-10.7-13.2-15.8-20c-3.9-5.5-7.6-11.2-11.9-16.5c-4.7-5.8-9.3-11.7-12.6-18.5
				C98.8,112.9,98.5,109.6,100.8,107.8z M317.6,196.9c-3,6-4.4,12.6-5.4,19.2c6.6-0.3,13.6-2,18.3-6.9c3.1-3.3,5.9-7.7,5.5-12.4
				c-0.6-4.2-4.7-8.6-9.2-7.6C322.6,190,319.5,193.2,317.6,196.9z"/>
		</g>
		<path id="XMLID_205_" d="M39.5,175.7c10.1-1.9,19.7,2.7,29,5.9c2.6,0.9,5.1,2.9,5.3,5.8c0.4,2-0.5,4-1.8,5.5
			c-3.3,4.1-6.4,8.9-6.6,14.4c0.1,4.4,2.9,9,7.2,10.5c7.2,2.8,15.3,1,22-2.3c5.1-2.4,9.3-6.5,11.8-11.5c1.5-3.2,0.3-7-2-9.5
			c-1.4-1.6-3.4-3.3-2.9-5.7c0.8-4.1,4.8-6.2,8.2-7.8c4.2-1.7,8.4-4,13-3.6c2.8,0.3,4.1,3.2,5.2,5.5c3,5.6,4.7,12.1,3.4,18.5
			c-1.3,7.6-5.9,14-10.9,19.7c-3.7,4.1-7.8,7.9-12.8,10.5c-11,5-23.2,7.8-35.3,7.4c-8.7,0.2-17.4-1.3-25.7-4.1
			c-10.1-4.1-19.1-12.1-22.2-22.8c-3.2-10.1,0.2-21,5.6-29.7C32.3,178.9,35.7,176.6,39.5,175.7z"/>
		<path id="XMLID_204_" d="M275.2,260.7c0,0,2.4-1.7,11.1-5.7l-7.5,5l-2.3,1.4L275.2,260.7z"/>
		<polygon id="XMLID_203_" points="399.4,103.5 404.1,101.2 404.1,102.2 398.2,105.4 		"/>
		<path id="XMLID_202_" d="M304.2,87.7c0,0,15.1-13.8,35-7.8l-3.7,0.2c0,0-15.8-2.9-29.7,8L304.2,87.7z"/>
	</g>
	<polygon id="XMLID_200_" class="st0" points="214.4,259.5 26,272.2 26,289 	"/>
	<polygon id="XMLID_199_" class="st0" points="283,68 445.2,27.7 450.5,15.6 	"/>
	<path id="XMLID_198_" class="st2" d="M325.8,73.9h10.9c1.4,0.4,2.8,0.7,4.3,1.2l0.4,0.7c-9.3-2.5-19.5-1.4-28.1,3.1
		c-0.3-0.1-1-0.2-1.3-0.3C316.2,76,321.1,74.9,325.8,73.9z"/>
	<linearGradient id="XMLID_3_" gradientUnits="userSpaceOnUse" x1="293.2869" y1="114.0535" x2="405.2103" y2="114.0535">
		<stop  offset="0" style="stop-color:#95C641"/>
		<stop  offset="0.9934" style="stop-color:#2B9E49"/>
	</linearGradient>
	<path id="XMLID_197_" class="st3" d="M313.3,78.8c8.6-4.5,18.8-5.6,28.1-3.1c9.8,2.8,18.4,9.6,23.3,18.6c4.8,8.6,5.7,19.1,3.1,28.5
		c7.9,2.7,15.8,5.5,23.7,8.1c0.1,6.3,4.1,12,9.8,14.6c1.4,0.9,3.3,1.4,4,3c0.1,1.8-2,2.4-3.3,3c-2.9,1-6,1.5-9,2
		c-10.3-6.3-20.5-12.7-30.8-19.1c-2.9,3.9-6.4,7.4-10.5,9.9c-0.2,0.1-0.6,0.4-0.8,0.5c-3.4-1.3-7-2.3-10.6-2.4
		c-1.4-0.1-2.8-0.1-4.1-0.5c2.4-1.3,5.3-1.6,7.7-3.2c6-3.3,10.6-9.1,12.4-15.8c2.1-7.5,0.4-15.8-4.2-22c-5.9-8.2-17-12.2-26.8-9.6
		c-8,2-14.9,8.1-17.8,15.8c-2.4,6.2-2.2,13.4,0.5,19.5c3.3,7.7,10.6,13.5,18.9,14.9c2.6,0.6,5.4,0.3,8,0.7c-2.3,0.9-4.7,1-7,1.8
		c-3.2,1-6,2.7-9,4.2c-8.7-3.3-16.3-9.5-20.7-17.8c-5.8-10.6-6.1-23.9-0.8-34.8C300.5,88.6,306.4,82.8,313.3,78.8z"/>
	<linearGradient id="XMLID_5_" gradientUnits="userSpaceOnUse" x1="384.3553" y1="98.1015" x2="439.2936" y2="98.1015">
		<stop  offset="0" style="stop-color:#95C641"/>
		<stop  offset="0.9934" style="stop-color:#2B9E49"/>
	</linearGradient>
	<path id="XMLID_196_" class="st4" d="M404,98c10.7-5.4,21.1-11.2,31.8-16.6c1.1,5.2,2.2,10.3,3.4,15.5
		c-17.4,6.1-34.8,11.9-52.2,17.8c-0.9-2.1-1.8-4.3-2.7-6.4c6.1-3.2,12.3-6.4,18.4-9.6c0.1-0.1,0.4-0.2,0.5-0.3
		C403.4,98.3,403.8,98.1,404,98z"/>
	<linearGradient id="XMLID_6_" gradientUnits="userSpaceOnUse" x1="218.0175" y1="99.7865" x2="279.8742" y2="99.7865">
		<stop  offset="0" style="stop-color:#95C641"/>
		<stop  offset="0.9934" style="stop-color:#2B9E49"/>
	</linearGradient>
	<path id="XMLID_195_" class="st5" d="M221.5,86.5c5.3-3.5,12.4-3.5,18-0.9c6.4,2.8,11.4,8,15.6,13.5c-0.8-3.9-0.6-8.7,2.7-11.5
		c4-3.3,9.5-3.3,14.4-2.9c3,0.4,7.1,1.5,7.7,5c0.4,3.8-2.4,7.8-6.1,8.9c-3.2,0.7-5.3-2.3-5.3-5.2c-2.9-0.1-5.3,1.7-6.5,4.2
		c-2.9,5.5-3.2,11.9-3.5,18.1c-2.1-6.6-5-13.4-10.6-17.8c-2.7-2.2-6-3.9-9.6-4.1c2.3,1,2.3,3.9,0.8,5.6c-1.8,2.2-4.1,4.2-6.9,5.1
		c-6.2,1.2-12.1-3.7-13.7-9.5C217.3,91.9,218.7,88.3,221.5,86.5z"/>
	<linearGradient id="XMLID_7_" gradientUnits="userSpaceOnUse" x1="400.7893" y1="121.4968" x2="444.6969" y2="121.4968">
		<stop  offset="0" style="stop-color:#20BBDB"/>
		<stop  offset="0.9934" style="stop-color:#1979BE"/>
	</linearGradient>
	<path id="XMLID_194_" class="st6" d="M439.6,106.7c1.4-1.3,3.5-0.5,4,1.2c1.6,4.6,1,9.6,0.6,14.3c-0.5,4.2-2.8,8.3-6.6,10.3
		c-8.8,5.3-19.8,5.5-29.3,2.4c-2.6-0.9-5.9-1.5-7-4.4c-1.1-3.4-0.3-7.1,0.9-10.3c0.9-2.1,3.5-1.5,5.3-1.5
		C419.3,119.5,430.7,114.1,439.6,106.7z"/>
	<g id="XMLID_190_">
		<linearGradient id="XMLID_8_" gradientUnits="userSpaceOnUse" x1="61.2707" y1="127.3831" x2="87.4349" y2="127.3831">
			<stop  offset="0" style="stop-color:#20BBDB"/>
			<stop  offset="0.9934" style="stop-color:#1979BE"/>
		</linearGradient>
		<path id="XMLID_191_" class="st7" d="M68,115.8c4-2.3,9-2.1,13,0c3.6,2.3,6.2,6.2,6.4,10.5c0.3,5.8-2.9,12.2-8.7,14
			c-6.2,1.4-13.4-1.6-16.2-7.5c-1.1-2.3-1.3-4.9-1.2-7.4C62,121.5,64.4,117.7,68,115.8z M68.2,128.2c-0.1,2.4,1.3,4.7,3.4,5.8
			c3,1.5,7.1,0.2,8.4-3.1c0.8-2.3,0.4-5-1.5-6.7c-1.5-1.8-4.1-0.9-6.1-0.8C70.8,124.7,68.7,125.9,68.2,128.2z"/>
	</g>
	<linearGradient id="XMLID_9_" gradientUnits="userSpaceOnUse" x1="57.4965" y1="157.0321" x2="113.7358" y2="157.0321">
		<stop  offset="0" style="stop-color:#20BBDB"/>
		<stop  offset="0.9934" style="stop-color:#1979BE"/>
	</linearGradient>
	<path id="XMLID_189_" class="st8" d="M108.5,142.3c1.2-0.6,2.9-0.8,3.9,0.4c1.2,1.5,1.3,3.5,1.4,5.4c0,4-0.7,7.9-1.8,11.7
		c-1.3,4.3-4.8,7.8-9.1,9.3c-12,4.7-25.6,3.8-37.6-0.6c-2.8-1.1-6.3-1.9-7.4-5c-1-3.7,0.5-7.5,2.2-10.7c1.3-2,4-1.3,5.9-1.1
		c12.1,1.8,24.5-0.6,35.5-5.7C103.9,144.8,106.1,143.4,108.5,142.3z"/>
	<linearGradient id="XMLID_10_" gradientUnits="userSpaceOnUse" x1="218.4851" y1="242.94" x2="265.9456" y2="242.94">
		<stop  offset="0" style="stop-color:#20BBDB"/>
		<stop  offset="0.9934" style="stop-color:#1979BE"/>
	</linearGradient>
	<path id="XMLID_188_" class="st9" d="M223.7,230.4c1.6-0.5,3.1,0.3,4.5,0.9c10.1,4.7,22,4.5,32.4,0.9c1.6-0.4,4.1-1.5,5.1,0.5
		c0.9,4.9-1.6,9.4-3.5,13.7c-1.8,4-5.1,7.6-9.5,8.5c-10.6,2.5-21.6-1.7-29.8-8.3c-2-1.7-4.7-3.5-4.4-6.5
		C218.8,236.4,220.9,232.7,223.7,230.4z"/>
	<linearGradient id="XMLID_11_" gradientUnits="userSpaceOnUse" x1="309.4376" y1="250.2242" x2="359.1853" y2="250.2242">
		<stop  offset="0" style="stop-color:#95C641"/>
		<stop  offset="0.9934" style="stop-color:#2B9E49"/>
	</linearGradient>
	<path id="XMLID_187_" class="st10" d="M348.9,238.8c2.4-1.2,4.7-2.5,7.1-3.6c1,4.7,2.1,9.4,3.1,14.1c-15.7,5.4-31.5,10.7-47.2,16.1
		c-0.8-1.9-1.7-3.8-2.5-5.8c12.7-6.7,25.4-13.4,38.2-20C348,239.2,348.5,239,348.9,238.8z"/>
	<path id="XMLID_186_" class="st2" d="M341,75.1c14,3.4,25.8,14.7,29.6,28.6c2,6.4,1.7,13.2,1,19.8c7.7,2.8,15.5,5.3,23.3,8.1
		c-0.8,4.6,1.1,9.5,5,12.2c2.7,2.1,6.9,2.8,8.2,6.4c1.1,3.3-1.8,6-4.7,6.9c-3.7,1.2-7.7,2.4-11.6,2.2c-4.1-2.2-8-4.8-11.9-7.3
		c-3.1-2.7-5.9-5.7-9.3-8.1c0,0.6-0.1,1.8-0.1,2.4c-2.6-1.6-5.2-3.2-7.8-4.8c-2,2.3-4.1,4.3-6.5,6.2c-1.7-0.9-3.3-1.9-4.7-3.2
		c4.2-2.5,7.6-6,10.5-9.9c10.3,6.3,20.5,12.7,30.8,19.1c3-0.5,6.1-1,9-2c1.3-0.6,3.4-1.2,3.3-3c-0.6-1.7-2.6-2.2-4-3
		c-5.7-2.6-9.6-8.3-9.8-14.6c-7.9-2.7-15.8-5.4-23.7-8.1c2.5-9.5,1.6-19.9-3.1-28.5c-4.8-9-13.4-15.8-23.3-18.6L341,75.1z"/>
	<path id="XMLID_185_" class="st2" d="M293.9,97.3c3.8-8,10.3-14.6,18.1-18.8c0.3,0.1,1,0.2,1.3,0.3c-6.9,3.9-12.8,9.8-16.2,17
		c-5.3,10.8-5,24.2,0.8,34.8c4.4,8.2,12,14.5,20.7,17.8c-1.7,1.2-3.3,2.6-4.8,4.1c-9.3-4.3-16.9-12.1-20.7-21.6
		C288.6,120.2,288.9,107.7,293.9,97.3z"/>
	<path id="XMLID_184_" class="st2" d="M405.5,96.3c11.4-5.9,22.7-12,34.2-17.8c1.6,7.2,3.1,14.4,4.8,21.5c-19,6.6-38,13-57.1,19.5
		c-1.6-3.7-3.2-7.5-4.7-11.2c6.2-3.4,12.6-6.3,18.6-10c0.4,0.1,1.1,0.3,1.5,0.4c-6.1,3.3-12.2,6.4-18.4,9.6c0.9,2.1,1.8,4.3,2.7,6.4
		c17.4-5.9,34.9-11.8,52.2-17.8c-1.2-5.2-2.3-10.3-3.4-15.5C425.2,86.8,414.7,92.6,404,98l-1.5,0.2
		C403.4,97.5,404.4,96.8,405.5,96.3z"/>
	<g id="XMLID_180_">
		<path id="XMLID_181_" class="st2" d="M218.8,85.8c4.6-3.9,11.2-4.8,17-3.6c6.5,1.4,11.9,5.5,16.5,10.1c1.2-5.2,6-8.6,11.1-9.3
			c5.1-0.7,10.8-0.8,15.4,1.8c3.6,2,4.7,6.8,2.9,10.4c-1.7,4-5.9,8-10.6,6.7c-2.4-0.5-3.9-2.6-5.1-4.6c-2.9,3-3.7,7.3-4.5,11.2
			c-0.9,4.6-1.6,9.3-2.4,13.9c-1.6-3.1-3.2-6.2-4.6-9.3c-0.3-0.8-1-1.3-1.7-1.7c0.2,0,0.7,0.1,0.9,0.1c-2.3-5.2-5.8-10.3-11-12.9
			c-1.4,4.1-5,7.1-8.9,8.9c-7.1,2.5-14.7-2.6-17.4-9.1C214.5,94.2,215.2,88.8,218.8,85.8z M221.5,86.5c-2.8,1.8-4.1,5.4-3.2,8.5
			c1.6,5.7,7.6,10.7,13.7,9.5c2.8-0.8,5.1-2.9,6.9-5.1c1.5-1.7,1.5-4.6-0.8-5.6c3.5,0.2,6.8,1.9,9.6,4.1c5.6,4.4,8.5,11.2,10.6,17.8
			c0.3-6.1,0.6-12.5,3.5-18.1c1.2-2.5,3.7-4.3,6.5-4.2c0.1,2.8,2.2,5.8,5.3,5.2c3.6-1.1,6.5-5.1,6.1-8.9c-0.6-3.5-4.7-4.6-7.7-5
			c-4.9-0.4-10.4-0.4-14.4,2.9c-3.3,2.8-3.5,7.6-2.7,11.5c-4.2-5.5-9.2-10.7-15.6-13.5C233.9,83,226.8,83,221.5,86.5z"/>
	</g>
	<path id="XMLID_179_" class="st2" d="M325,91.5c9.8-2.6,20.8,1.4,26.8,9.6c4.7,6.2,6.3,14.5,4.2,22c-1.8,6.7-6.3,12.5-12.4,15.8
		c-0.3-0.1-1-0.2-1.3-0.2c6.4-3.9,10.9-10.8,11.2-18.4c0.7-10.3-6.5-20.3-16.5-22.9c-9.9-3-21.3,2.1-25.9,11.2
		c-4.6,8.5-2.8,19.8,4.2,26.5c3.5,3.5,8.2,5.5,13,6.4c-0.4,0-1.3,0.1-1.7,0.1c-8.2-1.4-15.5-7.2-18.9-14.9
		c-2.7-6.1-2.9-13.2-0.5-19.5C310.1,99.5,317,93.4,325,91.5z"/>
	<path id="XMLID_178_" class="st2" d="M81,115.8c3.6,1.4,6.6,4.1,8.3,7.6c2.2,4.5,1.9,10-0.6,14.3c-2.4,4.1-6.8,6.9-11.5,7.3
		c-5.3,0.5-10.7-1.9-13.7-6.2c-2.7-3.8-3.5-8.8-2.1-13.2c-0.1,2.5,0.1,5.1,1.2,7.4c2.8,5.9,10,8.9,16.2,7.5c5.8-1.8,9.1-8.2,8.7-14
		C87.2,122,84.6,118,81,115.8z"/>
	<path id="XMLID_176_" class="st2" d="M347.3,239c2.7-2.3,6.1-3.4,9.1-5.2c1.4,6.6,3,13.1,4.3,19.7c-17.3,5.7-34.4,11.8-51.7,17.5
		c-1.4-3.4-2.9-6.7-4.3-10.1c11.6-6.1,23.2-12.1,34.7-18.2c2.2-1.2,4.6-2.3,6.7-3.7c0.4,0.1,1.1,0.4,1.4,0.6
		c-12.7,6.7-25.5,13.3-38.2,20c0.8,1.9,1.7,3.8,2.5,5.8c15.7-5.4,31.5-10.7,47.2-16.1c-1-4.7-2.1-9.4-3.1-14.1
		c-2.4,1.2-4.7,2.5-7.1,3.6L347.3,239z"/>
	<g id="XMLID_166_">
		<path id="XMLID_167_" class="st11" d="M102.8,98.9c5.1-2.7,11-4.1,16.9-3.5c5.8,0.8,11.3,3.9,14.7,8.7c2.6,3.5,3.8,7.7,5.4,11.8
			c1.9,4.9,5.4,8.9,7.8,13.5c8.2,15.2,17.6,29.7,28.4,43.2c-0.9-20.3-8.4-39.7-18.4-57.1c-2.4-3.7-1.6-8.8,1.7-11.7
			c4.8-4.2,11.6-5.9,17.9-5.7c5.2,0.2,10.6,2.2,13.8,6.4c2.3,2.8,3.3,6.3,3.7,9.9c1.5,11.4,2.6,22.8,4.8,34.1
			c1.8,8.9,3.9,17.8,6.6,26.5c2.6,8.3,5.7,16.5,10.4,23.9c2.2,3.3,4.8,6.7,8.5,8.5c2.1-0.8,3.6-2.9,4.2-5c1-4.8-1-9.5-3-13.7
			c-1.4-2.9-3.3-5.5-5-8.3c-2.1-3.7-1.9-9,1.4-12c4-3.6,9.7-4,14.9-4c4.5,0,9.7,1.2,12.4,5.2c2.5,3.9,1.8,8.7,2.8,13
			c1.3,9.8,6.4,19.2,14.5,25c1.5-1.9,3.2-4,3-6.6c-0.3-5.7-2.2-11.3-4.9-16.4c-1.4-2.8-3.5-5.6-3-8.9c0.2-3.5,3.1-6.2,6.2-7.5
			c5.3-2.3,11.7-3.3,17-0.5c4.3,2.3,6.6,7.2,6.8,12c0.3,5.2,1.5,10.3,3.9,14.9c3.1-14.9,6.9-30.9,17.9-42.2c1.5-1.5,3-2.9,4.8-4.1
			c3-1.4,5.8-3.2,9-4.2c2.3-0.8,4.8-0.9,7-1.8c-2.7-0.4-5.4-0.1-8-0.7c0.4,0,1.3-0.1,1.7-0.1c4.8,0.4,9.7-0.6,14-2.9
			c0.3,0.1,1,0.2,1.3,0.2c-2.3,1.6-5.2,1.9-7.7,3.2c1.3,0.5,2.7,0.5,4.1,0.5c3.7,0.1,7.2,1.1,10.6,2.4c0.2-0.1,0.6-0.4,0.8-0.5
			c1.4,1.3,3,2.3,4.7,3.2c5.8,3.3,10.7,8.3,13.4,14.5c0.4-5.3,0.5-10.6,0.8-15.9c0-0.6,0.1-1.8,0.1-2.4c3.4,2.4,6.2,5.4,9.3,8.1
			c4.4,4,9,8.2,14.7,10.3c5.7,0.4,11.8-0.7,16.7-3.9c4.7-3.3,6.7-9.1,7.5-14.5c-5.7-0.5-11.4-1.7-16.7-4c-3.7-1.6-5.9-5.6-5.9-9.6
			c-0.1-3.6,0.5-7.3,2.1-10.6c1.6-3,5.4-3.9,8.6-3.5c10,0.9,19.9-3,27.6-9.2c2-1.6,4.2-3.4,6.9-3.4c3.1-0.1,5.9,2.3,6.8,5.2
			c1.2,3.7,1.3,7.7,1.1,11.6c-0.2,3.9-0.6,8-2.5,11.5c-1.3,2.6-3.4,4.6-5.6,6.4c1.1,3.5,2.5,7,4.9,9.9c1.7,2.1,3.7,4,4.5,6.7
			c1.8,5.3-0.6,11.6-5.5,14.3c-3.8,2.2-8.6,1.7-12.5-0.1c-2.8,3.6-6.2,6.6-9.9,9.1c14.8,5,30.2,8.9,45.8,9.5v6.4
			c-2.4,2.4-3.4,5.8-4.9,8.8c-1.2,2.4-2.5,4.7-3.8,7c-7.8-1.3-16-3.3-23.6-0.5c-11.2,4.6-20.8,12.2-31.4,17.9
			c-7,4.1-14.7,7.5-23,8.1c-5.3,0.3-10.3-1.7-14.9-4.1c-5.3-2.6-9.9-6.6-13.7-11.1c-9.8,8.6-22.5,13.3-35.5,13.7
			c0.1,3.1,0.1,6.5-1.8,9.2c-2.4,3.8-7.1,5.9-11.5,5.2c-4.6-0.6-8.8-4.2-9.8-8.8c-0.9-3.3-0.8-6.7-1.5-10.1c-1.8-1.8-4.1-3-6-4.6
			c-4.4,4.6-10.2,7.6-16.4,9c0.2,3.7-0.2,7.4-1.6,10.8c-2.3,5.9-5.1,12.4-11.1,15.5c-6.5,3.1-14.2,3-21,1c-7.3-1.9-13.9-5.9-19.5-11
			c-2.1-1.9-3.6-4.5-3.6-7.4c-0.2-3.3,1.3-6.4,2.8-9.2c-3.2-1.1-6.2-2.7-8.8-4.9c-4.7-4-8.9-8.7-12.4-13.8
			c-4.1,7.1-9.1,13.5-14.5,19.6c-18,0.9-36.1,0.7-54.1,0.3c9.1-5.8,18.9-10.4,27.2-17.2c7.1-5.8,13.7-12.5,18.3-20.5
			c-3.1-0.2-6.2,0.2-9.2-0.6c-2.7-1.2-4.6-3.7-6.8-5.7c-14.2-14.3-27.1-29.9-38.7-46.5c1.4,5.9,0.5,12.1-1,17.9
			c-1.4,5.6-5.5,10.4-10.7,12.7c-8.8,3.8-18.7,4.8-28.2,3.5c2.5,3.8,3.1,9.1,0.4,13c-2.5,3.4-5.4,6.7-6.4,10.9
			c-1,3.2,0.7,6.9,3.8,8.2c4.1,1.7,8.7,1.2,12.9,0.1c5-1.5,10-4,13.1-8.3c1.1-1.5,2.7-3.2,2-5.3c-0.9-2.6-3.6-4.1-4.7-6.7
			c-1.7-3.9-0.4-8.5,2.6-11.4c4.2-4.2,10-6.2,15.4-8.2c4.7-1.7,10.9-1.7,14.1,2.8c4.3,6.5,7.4,14.3,6.8,22.2
			c-0.4,7.9-4.1,15.2-8.9,21.2c-6,7.6-13.2,14.7-22.5,17.9c-14.3,5.7-30,7.1-45.2,5c-5.3-0.8-10.6-2-15.6-4
			c-8.8-3.9-16.9-10.3-21.4-19.1c-2-3.8-3.2-8-3.9-12.2v-7.4c1.1-7.4,3.8-14.6,7.8-20.9c2.2-3.4,5.4-5.9,9.2-7.4
			c5.3-2.1,11.2-1.5,16.7-0.5c-2.4-5.4-0.6-11.6,2.2-16.4c2.1-3.2,6.3-4,9.8-3.3c13.5,2.2,27.3-1.3,39-8c3.1-1.9,7-2,10.1-0.2
			c-5.7-8-12.6-15.3-17.2-24c-2.1-3.3-2.8-7.4-1.7-11.2C97.2,102.4,100.1,100.4,102.8,98.9z M102.2,102.9c-2.3,1.7-2,5.1-1.1,7.5
			c3.3,6.7,7.9,12.7,12.6,18.5c4.3,5.3,8,11,11.9,16.5c5.1,6.8,10.2,13.6,15.8,20c7.4,8.5,14.7,17.1,23.2,24.5
			c5.1,0.4,10.4,0.8,15.4-0.3c-2.4,6.6-6.3,12.6-10.9,17.9c-7.1,8.3-15.9,15-25.3,20.7c7.8,0.4,15.6,0,23.4,0.1
			c3.8-0.4,7.6,0,11.4-0.5c6.7-7.4,12.8-15.7,16.3-25.1c0.7-0.2,0.7,1.1,1.1,1.5c3.3,7.2,8.5,13.4,14.5,18.6
			c3.9,3.5,9.2,5.4,14.4,5.2c5.8-0.7,11.7-2.7,16-6.8c2.3-2.1,3.8-4.8,5.5-7.3c3.2,4.1,6.8,8.1,11.3,10.8c3.4,2.1,7.5,4.2,11.6,2.8
			c7-1.4,13.4-5.5,17.2-11.6c3.3,3.4,7.1,6.3,11.2,8.6c0.4,4.3,0.4,8.7,1.7,12.9c1.7,4.8,8.8,5.8,11.9,1.9c3-3.3,1-8,1.2-11.9
			c5.5-0.1,11-0.4,16.4-1.8c9.4-2.2,18.1-7.3,24.6-14.5c2.8,3.4,5.4,6.9,8.8,9.6c4.2,3.7,9.5,5.8,14.8,7.4c5.8,1.4,11.7-0.5,17-2.7
			c13.7-6.1,25.3-15.9,39-21.9c7.6-3.5,16.2-2.4,24.2-0.9c2.4-4.1,4.2-8.4,6.3-12.6c-10.5-0.7-20.8-3-30.9-5.9
			c-7.6-2.3-15.4-4.6-22.7-7.8c5-1.6,10-3.7,14-7.1c3.4-2.8,5.8-6.5,8-10.2c0.8,1.1,1.4,2.4,2.5,3.3c3,2.3,7.7,2,10.2-0.9
			c2.5-2.8,2.4-7.6-0.4-10.2c-3.6-3.7-5.9-8.4-7.5-13.2c-3.9,1.2-7.5,2.9-11.4,4.3c-1,0.4-2.3,0.7-2.4,2c-1,5-2.8,10-6.4,13.7
			c-5.2,5.4-13.1,7.1-20.3,7.2c-3.7,0.2-6.9-1.9-9.9-3.8c-4.2-2.7-7.7-6.2-11.7-9.3c-0.1,7-0.7,14.3,1.4,21.1
			c1.5,4.1,3.6,8.5,7.4,11c9.6,6.2,20.9,8.5,31.7,11.7c-5.9,4.8-12.6,8.4-19.5,11.6c-5.3,2.1-11.2,4.4-16.8,2.7
			c-5.7-2.6-10.5-7.4-12.8-13.3c-0.7-1.6-1.1-3.3-0.6-5c1.9-7.1,2.8-14.5,1.9-21.8c-0.9-6.6-4-13.2-9.4-17.3
			c-6.5-5.1-14.9-8.4-23.3-7.3c-9.8,1.1-18.7,7.4-23.5,15.9c-7.8,13.2-10.2,28.5-12.5,43.4c-6.8-6.9-11-16.3-11.4-26
			c-0.1-3.1-1.2-6.6-3.9-8.4c-3.1-1.9-6.9-1.7-10.3-0.7c-2,0.6-4.2,1.3-5.7,2.9c-1.3,1.4-0.8,3.6,0.1,5.2c3.7,6.4,6.6,13.5,7,21
			c0.3,5.2-3,10-7.4,12.4c-5.6-2.3-9.5-7.3-12.9-12.1c-5.1-7.5-6.6-16.6-7.4-25.5c-0.1-2.2-1.4-4.4-3.6-5.2
			c-4.2-1.6-8.9-1.2-13.3-0.5c-2.4,0.5-5.2,1.8-5.6,4.5c-0.5,3.2,2,5.5,3.4,8.1c3.3,5.8,6.6,12.2,6.1,19c-0.3,5-4.1,9.2-8.5,11.2
			c-7.6-2.1-12.2-9.4-15.8-15.9c-7-13.5-10.7-28.3-14-43c-2.9-13.1-4.1-26.4-5.9-39.7c-0.4-4-2.7-7.8-6.4-9.6
			c-4.2-1.9-9.1-1.9-13.5-0.8c-2.9,0.8-6,2-8,4.3c-1.3,1.4-1.3,3.5-0.3,5.1c7,12.3,13,25.4,16.2,39.3c2.5,10.5,3.3,21.2,3.4,32
			c-4.3-3.7-8.5-7.6-11.7-12.3c-9.6-12.6-18.3-25.8-25.7-39.8c-2.4-4.5-5.7-8.3-7.7-13c-1.8-3.8-2.6-8-5-11.5
			c-2.8-4.3-7.6-7.2-12.8-7.4C112.5,97.6,106.6,99.3,102.2,102.9z M439.6,106.7c-8.9,7.4-20.3,12.8-32.1,12c-1.8,0-4.5-0.6-5.3,1.5
			c-1.2,3.3-2,7-0.9,10.3c1,2.9,4.4,3.5,7,4.4c9.6,3.1,20.6,2.9,29.3-2.4c3.8-2,6.1-6.1,6.6-10.3c0.5-4.7,1-9.7-0.6-14.3
			C443.1,106.2,441,105.4,439.6,106.7z M108.5,142.3c-2.4,1-4.6,2.5-7,3.5c-11,5.1-23.5,7.5-35.5,5.7c-2-0.2-4.6-0.8-5.9,1.1
			c-1.8,3.2-3.2,7-2.2,10.7c1.1,3.1,4.7,3.9,7.4,5c12,4.4,25.6,5.4,37.6,0.6c4.2-1.5,7.8-5,9.1-9.3c1.1-3.8,1.8-7.7,1.8-11.7
			c-0.1-1.8-0.2-3.9-1.4-5.4C111.4,141.5,109.7,141.8,108.5,142.3z M40.8,170.7c-3.8,0.9-7.2,3.3-9.2,6.7
			c-5.4,8.7-8.8,19.6-5.6,29.7c3.1,10.7,12.1,18.7,22.2,22.8c8.2,2.8,17,4.3,25.7,4.1c12.1,0.4,24.3-2.4,35.3-7.4
			c4.9-2.6,9-6.5,12.8-10.5c5-5.6,9.6-12.1,10.9-19.7c1.2-6.3-0.4-12.9-3.4-18.5c-1.2-2.2-2.4-5.2-5.2-5.5c-4.6-0.4-8.9,1.9-13,3.6
			c-3.4,1.6-7.4,3.8-8.2,7.8c-0.5,2.4,1.5,4.1,2.9,5.7c2.3,2.5,3.5,6.3,2,9.5c-2.5,5-6.7,9.1-11.8,11.5c-6.7,3.2-14.8,5.1-22,2.3
			c-4.3-1.5-7.1-6-7.2-10.5c0.2-5.5,3.3-10.2,6.6-14.4c1.3-1.5,2.2-3.5,1.8-5.5c-0.2-2.9-2.7-5-5.3-5.8
			C60.6,173.4,50.9,168.8,40.8,170.7z M372.6,179.1c-0.2,5.4-1.3,10.7-2.4,15.9c0.5,4.3,3.6,7.9,7,10.4c3.5,2.6,8.2,2.5,12.1,1.2
			c5.2-1.7,10.3-4.1,14.9-7.2c-8.3-2.5-16.8-5.2-24.1-10.2C376.5,186.9,374.6,182.9,372.6,179.1z M237.2,231.5
			c6,1.4,12.3,1,18.2-0.5c-2.8-2.5-6.1-4.5-8.6-7.4C244.1,226.9,240.7,229.3,237.2,231.5z M223.7,230.4c-2.8,2.3-4.9,6-5.2,9.7
			c-0.3,3,2.4,4.8,4.4,6.5c8.2,6.7,19.2,10.8,29.8,8.3c4.4-0.9,7.7-4.5,9.5-8.5c1.9-4.3,4.4-8.9,3.5-13.7c-1-2-3.5-0.9-5.1-0.5
			c-10.4,3.5-22.3,3.8-32.4-0.9C226.8,230.7,225.3,229.9,223.7,230.4z"/>
	</g>
	<g id="XMLID_162_">
		<path id="XMLID_163_" class="st11" d="M319,191.9c1.8-3.6,5-6.9,9.1-7.8c4.6-1,8.6,3.4,9.2,7.6c0.4,4.7-2.4,9.1-5.5,12.4
			c-4.7,4.9-11.7,6.7-18.3,6.9C314.6,204.5,316,197.9,319,191.9z M323.6,195.3c-2.2,3.8-3.4,8.2-4.3,12.5c6-1.1,11.4-5.5,13.2-11.4
			c0.8-2.2-0.6-4.5-2.5-5.6C327.2,190.7,325,193.1,323.6,195.3z"/>
	</g>
	<g id="XMLID_158_">
		<linearGradient id="XMLID_12_" gradientUnits="userSpaceOnUse" x1="100.3888" y1="169.7312" x2="463.5848" y2="169.7312">
			<stop  offset="0" style="stop-color:#20BBDB"/>
			<stop  offset="0.9934" style="stop-color:#1979BE"/>
		</linearGradient>
		<path id="XMLID_159_" class="st12" d="M102.2,102.9c4.5-3.6,10.4-5.2,16.1-4.9c5.1,0.2,10,3.1,12.8,7.4c2.4,3.5,3.2,7.7,5,11.5
			c2,4.6,5.4,8.5,7.7,13c7.4,13.9,16.1,27.2,25.7,39.8c3.3,4.6,7.4,8.6,11.7,12.3c-0.1-10.7-0.9-21.5-3.4-32
			c-3.2-13.9-9.2-26.9-16.2-39.3c-1-1.5-1-3.7,0.3-5.1c2-2.4,5.1-3.5,8-4.3c4.4-1.2,9.3-1.2,13.5,0.8c3.7,1.7,6,5.6,6.4,9.6
			c1.8,13.2,3,26.6,5.9,39.7c3.3,14.7,7,29.6,14,43c3.6,6.5,8.2,13.8,15.8,15.9c4.5-2,8.2-6.2,8.5-11.2c0.5-6.9-2.8-13.2-6.1-19
			c-1.4-2.5-3.9-4.9-3.4-8.1c0.4-2.7,3.2-3.9,5.6-4.5c4.4-0.7,9.1-1.2,13.3,0.5c2.1,0.8,3.4,3,3.6,5.2c0.8,8.8,2.3,18,7.4,25.5
			c3.3,4.9,7.3,9.8,12.9,12.1c4.4-2.4,7.8-7.2,7.4-12.4c-0.5-7.5-3.3-14.6-7-21c-0.9-1.5-1.4-3.7-0.1-5.2c1.5-1.6,3.7-2.2,5.7-2.9
			c3.3-0.9,7.2-1.2,10.3,0.7c2.8,1.8,3.8,5.3,3.9,8.4c0.5,9.7,4.6,19.1,11.4,26c2.2-14.9,4.7-30.3,12.5-43.4
			c4.9-8.5,13.7-14.8,23.5-15.9c8.4-1.1,16.8,2.2,23.3,7.3c5.4,4.2,8.5,10.7,9.4,17.3c0.9,7.3-0.1,14.7-1.9,21.8
			c-0.5,1.7-0.1,3.4,0.6,5c2.2,5.9,7.1,10.7,12.8,13.3c5.7,1.7,11.6-0.6,16.8-2.7c6.9-3.1,13.6-6.8,19.5-11.6
			c-10.8-3.2-22.1-5.5-31.7-11.7c-3.9-2.5-5.9-6.8-7.4-11c-2.2-6.8-1.5-14-1.4-21.1c3.9,3,7.5,6.6,11.7,9.3c3,1.9,6.2,4,9.9,3.8
			c7.3-0.1,15.1-1.8,20.3-7.2c3.7-3.6,5.4-8.7,6.4-13.7c0.1-1.3,1.4-1.6,2.4-2c3.8-1.4,7.5-3,11.4-4.3c1.6,4.8,3.9,9.6,7.5,13.2
			c2.7,2.7,2.9,7.4,0.4,10.2c-2.5,2.9-7.3,3.2-10.2,0.9c-1.1-0.9-1.7-2.1-2.5-3.3c-2.2,3.7-4.6,7.4-8,10.2c-4,3.5-9,5.6-14,7.1
			c7.3,3.2,15,5.5,22.7,7.8c10.1,2.8,20.4,5.2,30.9,5.9c-2.2,4.2-3.9,8.6-6.3,12.6c-8-1.5-16.6-2.6-24.2,0.9
			c-13.7,6-25.3,15.8-39,21.9c-5.3,2.2-11.2,4.1-17,2.7c-5.3-1.5-10.6-3.7-14.8-7.4c-3.4-2.7-6.1-6.2-8.8-9.6
			c-6.5,7.1-15.1,12.3-24.6,14.5c-5.4,1.3-10.9,1.7-16.4,1.8c-0.2,3.9,1.8,8.6-1.2,11.9c-3.1,3.9-10.2,2.8-11.9-1.9
			c-1.2-4.2-1.3-8.6-1.7-12.9c-4.1-2.3-7.9-5.2-11.2-8.6c-3.8,6.1-10.2,10.2-17.2,11.6c-4.1,1.4-8.2-0.7-11.6-2.8
			c-4.5-2.7-8.1-6.7-11.3-10.8c-1.7,2.5-3.2,5.3-5.5,7.3c-4.3,4.1-10.1,6.1-16,6.8c-5.2,0.2-10.5-1.7-14.4-5.2
			c-5.9-5.2-11.2-11.4-14.5-18.6c-0.4-0.4-0.4-1.7-1.1-1.5c-3.6,9.4-9.6,17.7-16.3,25.1c-3.8,0.5-7.6,0.1-11.4,0.5
			c-7.8,0-15.6,0.4-23.4-0.1c9.3-5.7,18.1-12.4,25.3-20.7c4.6-5.3,8.5-11.3,10.9-17.9c-5.1,1-10.3,0.7-15.4,0.3
			c-8.5-7.4-15.9-16-23.2-24.5c-5.5-6.5-10.7-13.2-15.8-20c-3.9-5.5-7.6-11.2-11.9-16.5c-4.7-5.8-9.3-11.7-12.6-18.5
			C100.1,108,99.9,104.6,102.2,102.9z M319,191.9c-3,6-4.4,12.6-5.4,19.2c6.6-0.3,13.6-2,18.3-6.9c3.1-3.3,5.9-7.7,5.5-12.4
			c-0.6-4.2-4.7-8.6-9.2-7.6C324,185,320.8,188.3,319,191.9z"/>
	</g>
	<linearGradient id="XMLID_17_" gradientUnits="userSpaceOnUse" x1="24.8412" y1="202.1251" x2="133.2548" y2="202.1251">
		<stop  offset="0" style="stop-color:#20BBDB"/>
		<stop  offset="0.9934" style="stop-color:#1979BE"/>
	</linearGradient>
	<path id="XMLID_157_" class="st13" d="M40.8,170.7c10.1-1.9,19.7,2.7,29,5.9c2.6,0.9,5.1,2.9,5.3,5.8c0.4,2-0.5,4-1.8,5.5
		c-3.3,4.1-6.4,8.9-6.6,14.4c0.1,4.4,2.9,9,7.2,10.5c7.2,2.8,15.3,1,22-2.3c5.1-2.4,9.3-6.5,11.8-11.5c1.5-3.2,0.3-7-2-9.5
		c-1.4-1.6-3.4-3.3-2.9-5.7c0.8-4.1,4.8-6.2,8.2-7.8c4.2-1.7,8.4-4,13-3.6c2.8,0.3,4.1,3.2,5.2,5.5c3,5.6,4.7,12.1,3.4,18.5
		c-1.3,7.6-5.9,14-10.9,19.7c-3.7,4.1-7.8,7.9-12.8,10.5c-11,5-23.2,7.8-35.3,7.4c-8.7,0.2-17.4-1.3-25.7-4.1
		c-10.1-4.1-19.1-12.1-22.2-22.8c-3.2-10.1,0.2-21,5.6-29.7C33.6,174,37.1,171.6,40.8,170.7z"/>
	<path id="XMLID_156_" d="M202.4,135.3c3.9,0,7.7,0,11.6,0c0,0.5-0.1,1.6-0.1,2.2c-1.5,0-3.1,0-4.6,0c0.2,7.6,0,15.2,0.1,22.8
		c-0.6,0.1-1.7,0.2-2.3,0.2c-0.1-7.7-0.1-15.4-0.1-23.1c-1.6,0-3.1,0-4.7,0C202.4,136.9,202.4,135.9,202.4,135.3z"/>
	<path id="XMLID_153_" d="M226.9,135.3c3.4,0,6.9,0,10.3,0c-0.2,1.6-0.5,3.2-0.9,4.8c-1.8,6.8-3.3,13.6-5.1,20.4
		c-0.8,0-1.5-0.1-2.3-0.2c1.7-7.7,3.7-15.2,5.5-22.8c-2.5-0.1-5.1-0.1-7.6,0C226.9,136.9,226.9,135.9,226.9,135.3z"/>
	<path id="XMLID_152_" d="M267.8,135.3c0.5,0,1.5,0,2.1,0c0,8,0,16.1,0,24.1c0.4,1.3-1.3,0.9-2,1.2
		C267.5,152.2,267.6,143.7,267.8,135.3z"/>
	<path id="XMLID_151_" d="M289.2,137.5c0.5,0,1.6-0.1,2.1-0.1c0,1.6,0,3.3,0.1,4.9c1.1,0,2.3,0.1,3.4,0.1c0,0.7,0,1.4,0,2.1
		c-1.1,0-2.3,0-3.4,0c0,3.8-0.3,7.7,0.2,11.5c0.1,1.9,2.1,2.1,3.5,2.6c0,0.5,0.1,1.5,0.2,2c-2.5,0.2-5.3-1-5.8-3.8
		c-0.5-4,0-8.1-0.3-12.2c-0.9-0.1-1.7-0.1-2.6-0.2c0-0.7,0-1.3,0-2c0.9,0,1.7-0.1,2.6-0.1C289.2,140.7,289.2,139.1,289.2,137.5z"/>
	<g id="XMLID_147_">
		<path id="XMLID_148_" d="M216.6,142.6c2.9-1.6,7.4-0.1,8,3.4c0.4,3.5,0.2,7.2,0,10.7c-0.6,4-6,5.4-9,3.1c-2.7-2.1-2.8-6.8,0-8.9
			c2-1.4,4.7-0.9,7-1c0.1-2.1,0-5.2-2.6-5.7c-2.3-0.7-3.8,1.6-4.1,3.5c-0.5,0-1.6,0-2.2,0C214.1,145.8,214.7,143.6,216.6,142.6z
			 M216.1,154.1c-1.3,2.7,1.9,5.7,4.6,4.4c2.5-1.1,1.9-4.2,2-6.4C220.4,152.1,217.1,151.4,216.1,154.1z"/>
	</g>
	<path id="XMLID_146_" d="M242.3,142.5c2.2-0.9,5.1-0.7,6.8,1.1c1.1,1.1,1.1,2.8,1.4,4.2c-2.9,0.9-2.2-2.7-4.2-3.5
		c-1.9-1-4.9,0.7-4.5,3c1.1,2.5,4.1,2.8,6.2,4.1c2.6,1.2,3.4,4.7,1.9,7.1c-1.8,2.9-6.2,3.1-8.7,1c-1.4-1.2-1.7-3.1-1.9-4.9
		c0.5,0,1.6,0.1,2.2,0.1c0.3,1.7,1.1,3.9,3.2,4c2.3,0.6,4.8-1.7,3.5-4c-1.9-2.4-5.4-2.4-7.4-4.6
		C238.6,147.8,239.4,143.7,242.3,142.5z"/>
	<g id="XMLID_140_">
		<path id="XMLID_141_" d="M253.3,146.6c0.1-3.6,4.6-5.7,7.7-4.3c3.7,1.4,4.5,7.2,1.3,9.5c-2,1.6-4.7,0.9-7,1.1
			c0,2.1-0.1,5.1,2.5,5.7c2.6,0.8,4.1-1.9,4.5-4c0.5,0,1.6,0.1,2.1,0.1c-0.4,1.6-0.6,3.5-1.9,4.7c-2.6,2.7-8.1,1.6-9.1-2.1
			C252.9,153.8,253,150.2,253.3,146.6z M257.4,144.4c-2.6,1-2,4.2-2.1,6.4c2.2,0,5.6,0.6,6.5-2.1C262.9,146.1,260,143.2,257.4,144.4
			z"/>
	</g>
	<g id="XMLID_47_">
		<path id="XMLID_119_" d="M274.7,143.8c2.3-2.9,7.7-2.3,9.2,1.2c0.8,2.2,0.4,4.7,0.5,7c0,2.2,0.4,4.5-0.8,6.5c-1.9,3-6.7,3.3-9,0.6
			c-2.2-2.4-1.8-6.9,1.2-8.5c2-1.1,4.4-0.7,6.6-0.7c-0.1-1.7,0.2-3.9-1.4-5.1c-1.6-1.3-4.4-0.7-4.9,1.4c-0.3,1.4-1.4,1.8-2.7,1.6
			C273.6,146.5,273.7,144.9,274.7,143.8z M275.6,154.1c-1.2,2.7,1.9,5.8,4.6,4.4c2.5-1.1,1.9-4.2,2-6.4
			C280,152.1,276.7,151.4,275.6,154.1z"/>
	</g>
	<path id="XMLID_46_" class="st11" d="M345.3,239.5c0,0,2.4-1.7,11.1-5.7l-7.5,5l-2.3,1.4L345.3,239.5z"/>
	<polygon id="XMLID_45_" class="st11" points="400.8,98.6 405.5,96.3 405.5,97.3 399.5,100.4 	"/>
	<path id="XMLID_42_" class="st11" d="M305.5,82.8c0,0,15.1-13.8,35-7.8l-3.7,0.2c0,0-15.8-2.9-29.7,8L305.5,82.8z"/>
	<path id="XMLID_41_" class="st14" d="M334.7,150.9c0,0,26-2.4,28.9,28C363.6,178.9,357.5,155.9,334.7,150.9z"/>
	<path id="XMLID_38_" class="st14" d="M328.9,78.3c0,0,24.1-1.7,33,20.7C361.8,99,351.9,81.2,328.9,78.3z"/>
	<path id="XMLID_37_" class="st14" d="M421.4,119.7c0,0,11.5-4.3,16.9-8.1C438.2,111.7,429.5,122.2,421.4,119.7z"/>
	<path id="XMLID_36_" class="st14" d="M272.6,172.2c0,0,11.6-4,12.4,5C284.9,177.1,281.5,172.7,272.6,172.2z"/>
	<path id="XMLID_20_" class="st14" d="M226.7,171.3c0,0,19.3-7.7,18.8,6.9C245.6,178.2,243.6,169.6,226.7,171.3z"/>
	<path id="XMLID_19_" class="st14" d="M262.6,235.2c0,0,0.1,22.4-22.7,16.1C239.9,251.3,259.5,252,262.6,235.2z"/>
	<path id="XMLID_18_" class="st14" d="M223.3,88.7c0,0,6.6-6.4,16.6,0C239.9,88.7,231.2,85.1,223.3,88.7z"/>
	<path id="XMLID_4_" class="st14" d="M104.6,105.4c0,0,17.4-10.4,26.3,5.6C130.9,111,119.8,103.5,104.6,105.4z"/>
	<path id="XMLID_16_" class="st14" d="M170.2,103.3c0,0,17.3-5.7,19.1,19.8C189.3,123.1,183.5,99.7,170.2,103.3z"/>
	<path id="XMLID_15_" class="st14" d="M92.7,150.9c0,0,13.2-2.6,16.3-4.3c3-1.8,5.6,13.6-2.6,17.2c0,0,7.2-12.9-0.2-12.9
		S92.7,150.9,92.7,150.9z"/>
	<path id="XMLID_14_" class="st14" d="M117.2,178.2c0,0,15-3.4,11.9,21.1C129.2,199.3,126.4,177.1,117.2,178.2z"/>
	<path id="XMLID_13_" class="st14" d="M48.7,173.2c0,0,34.7,5.4,18.2,18.4C66.9,191.7,77.7,181.7,48.7,173.2z"/>
</g>
</svg>
