<svg id="Vector_Smart_Object" data-name="Vector Smart Object" xmlns="http://www.w3.org/2000/svg" xmlns:xlink="http://www.w3.org/1999/xlink" width="248" height="71" viewBox="0 0 248 71">
  <defs>
    <clipPath id="clip-path">
      <rect id="Rectangle_2" data-name="Rectangle 2" width="248" height="71" transform="translate(0)" fill="#003d68"/>
    </clipPath>
  </defs>
  <g id="Group_2" data-name="Group 2" transform="translate(0)">
    <g id="Group_1" data-name="Group 1" clip-path="url(#clip-path)">
      <path id="Path_1" data-name="Path 1" d="M36.343,26.989h0c-5.283-2.014-6.894-3.274-6.894-5.394,0-1.981,1.332-3.259,3.6-3.535H48.386a1.708,1.708,0,0,0,1.709-1.707V13.635a1.708,1.708,0,0,0-1.709-1.707H11V1.975A1.976,1.976,0,0,0,9.02,0H6.5A1.976,1.976,0,0,0,4.524,1.975v9.953H1.977A1.976,1.976,0,0,0,0,13.9v2.182a1.976,1.976,0,0,0,1.977,1.975H4.524V38.011c0,5.113,1.7,11.208,9.811,11.208a10.561,10.561,0,0,0,4.07-.6.754.754,0,0,0,.442-.686V43.64a.754.754,0,0,0-.869-.744h0a19.857,19.857,0,0,1-3.038.193c-2.557,0-3.942-.809-3.942-5.077V18.059H23.662a9.318,9.318,0,0,0-.688,3.535c0,5.621,3.866,8.283,9.663,10.549a34.362,34.362,0,0,1,6.431,3.14,3.541,3.541,0,0,1,1.55,3.2c0,2.8-2.439,4.406-6.692,4.406-3.959,0-6.947-1.746-7.8-4.557a.755.755,0,0,0-.991-.486l-4.226,1.608a.753.753,0,0,0-.462.894h0c1.391,5.35,6.555,8.673,13.477,8.673,9.095,0,13.166-5.292,13.166-10.537s-3.114-8.56-10.748-11.492" transform="translate(0 0)" fill="#003d68"/>
      <path id="Path_2" data-name="Path 2" d="M313.508,34.934,302.129,68.278a1.977,1.977,0,0,1-1.871,1.338h-1.519a1.977,1.977,0,0,1-1.879-1.361l-7.529-23.016-3.259-9.962-.12-.367a1.975,1.975,0,0,1,1.879-2.587h2.355a1.977,1.977,0,0,1,1.881,1.366l7.4,22.83,7.716-22.853a1.977,1.977,0,0,1,1.873-1.344h2.577a1.975,1.975,0,0,1,1.871,2.612" transform="translate(-180.36 -20.394)" fill="#003d68"/>
      <path id="Path_3" data-name="Path 3" d="M188.465,37.155l-6.319,19.371-7.716-22.86a1.977,1.977,0,0,0-1.873-1.344h-7.49A1.976,1.976,0,0,0,163.09,34.3v2.637a18.6,18.6,0,0,0-12.282-4.612,19.4,19.4,0,0,0-2.452.158A18.648,18.648,0,1,0,163.09,65v2.644a1.976,1.976,0,0,0,1.977,1.975h2.444a1.976,1.976,0,0,0,1.977-1.975V38.8l10.06,29.482a1.976,1.976,0,0,0,1.871,1.338h1.526a1.977,1.977,0,0,0,1.88-1.363l6.9-21.136ZM162.992,52.578A12.281,12.281,0,1,1,149.209,38.8a12.318,12.318,0,0,1,13.783,13.775" transform="translate(-83.383 -20.394)" fill="#003d68"/>
      <path id="Path_4" data-name="Path 4" d="M390.406,36.935a18.647,18.647,0,1,0,0,28.062v2.86a1.755,1.755,0,0,0,1.756,1.754h2.883a1.755,1.755,0,0,0,1.756-1.754V34.073a1.755,1.755,0,0,0-1.756-1.754h-2.883a1.755,1.755,0,0,0-1.756,1.754v2.861Zm-10.683,26.2A12.27,12.27,0,1,1,390.3,52.577a12.29,12.29,0,0,1-10.579,10.555" transform="translate(-226.806 -20.392)" fill="#003d68"/>
      <path id="Path_5" data-name="Path 5" d="M495.43,36.935a18.647,18.647,0,1,0,0,28.062v2.86a1.755,1.755,0,0,0,1.756,1.754h2.883a1.755,1.755,0,0,0,1.756-1.754V34.073a1.755,1.755,0,0,0-1.756-1.754h-2.883a1.755,1.755,0,0,0-1.756,1.754v2.861Zm-10.683,26.2a12.27,12.27,0,1,1,10.579-10.555,12.29,12.29,0,0,1-10.579,10.555" transform="translate(-293.071 -20.392)" fill="#003d68"/>
      <path id="Path_6" data-name="Path 6" d="M601.775,36.934h0a18.647,18.647,0,1,0,0,28.062V78.463a1.755,1.755,0,0,0,1.756,1.754h2.883a1.755,1.755,0,0,0,1.756-1.754V34.073a1.755,1.755,0,0,0-1.756-1.754H603.53a1.755,1.755,0,0,0-1.756,1.754Zm-10.683,26.2a12.27,12.27,0,1,1,10.579-10.555,12.29,12.29,0,0,1-10.579,10.555" transform="translate(-360.169 -20.392)" fill="#003d68"/>
      <path id="Path_7" data-name="Path 7" d="M142.39,173.012l4.79-11.305h.974l4.791,11.305h-1.364l-1.169-2.79h-5.489l-1.169,2.79Zm3.02-3.958h4.514l-2.257-5.385Z" transform="translate(-89.841 -102.029)" fill="#003d68"/>
      <path id="Path_8" data-name="Path 8" d="M176.579,173.012V161.706h1.267v10.138h4.66v1.168Z" transform="translate(-111.413 -102.029)" fill="#003d68"/>
      <path id="Path_9" data-name="Path 9" d="M195.337,173.012l-3.313-11.305h1.283l2.517,8.548,2.793-8.548h.877l2.793,8.548,2.517-8.548h1.283l-3.313,11.305h-.812l-2.907-8.743-2.907,8.743Z" transform="translate(-121.158 -102.029)" fill="#003d68"/>
      <path id="Path_10" data-name="Path 10" d="M229.34,173.012l4.791-11.305h.974l4.791,11.305h-1.364l-1.169-2.79h-5.489l-1.169,2.79Zm3.02-3.958h4.515l-2.257-5.385Z" transform="translate(-144.703 -102.029)" fill="#003d68"/>
      <path id="Path_11" data-name="Path 11" d="M260.072,173.012v-4.639l-3.979-6.666h1.4l3.232,5.418,3.2-5.418h1.364l-3.946,6.666v4.639Z" transform="translate(-161.583 -102.029)" fill="#003d68"/>
      <path id="Path_12" data-name="Path 12" d="M283.8,169.666a2.92,2.92,0,0,0,2.842,2.044,2.144,2.144,0,0,0,1.916-.795,2.193,2.193,0,0,0,.357-1.2,1.772,1.772,0,0,0-.568-1.411,8.262,8.262,0,0,0-1.965-1.1,8.457,8.457,0,0,1-2.257-1.346,2.506,2.506,0,0,1-.714-1.914,2.6,2.6,0,0,1,.877-2.011,3.17,3.17,0,0,1,2.225-.795,3.243,3.243,0,0,1,3.053,1.8l-1.088.552A2.1,2.1,0,0,0,286.5,162.3a1.687,1.687,0,0,0-1.819,1.606,1.491,1.491,0,0,0,.666,1.363c.276.178.487.325.666.422l.974.438a7.814,7.814,0,0,1,2.452,1.509,2.719,2.719,0,0,1,.747,2.06,3.007,3.007,0,0,1-.942,2.287,3.6,3.6,0,0,1-2.614.892,3.935,3.935,0,0,1-3.914-2.709Z" transform="translate(-178.38 -101.668)" fill="#003d68"/>
      <rect id="Rectangle_1" data-name="Rectangle 1" width="1.267" height="11.305" transform="translate(120.606 59.677)" fill="#003d68"/>
      <path id="Path_13" data-name="Path 13" d="M338.51,173.012V161.706h1.1l6.837,9.051v-9.051h1.267v11.305h-1.023l-6.918-9.148v9.148Z" transform="translate(-213.584 -102.029)" fill="#003d68"/>
      <path id="Path_14" data-name="Path 14" d="M387.869,169.666a2.92,2.92,0,0,0,2.842,2.044,2.144,2.144,0,0,0,1.916-.795,2.193,2.193,0,0,0,.357-1.2,1.772,1.772,0,0,0-.568-1.411,8.272,8.272,0,0,0-1.965-1.1,8.45,8.45,0,0,1-2.257-1.346,2.506,2.506,0,0,1-.715-1.914,2.6,2.6,0,0,1,.877-2.011,3.17,3.17,0,0,1,2.225-.795,3.244,3.244,0,0,1,3.053,1.8l-1.088.552a2.1,2.1,0,0,0-1.981-1.184,1.687,1.687,0,0,0-1.819,1.606,1.491,1.491,0,0,0,.666,1.363c.276.178.487.325.666.422l.974.438a7.814,7.814,0,0,1,2.452,1.509,2.719,2.719,0,0,1,.747,2.06,3.008,3.008,0,0,1-.942,2.287,3.6,3.6,0,0,1-2.615.892,3.934,3.934,0,0,1-3.914-2.709Z" transform="translate(-244.041 -101.668)" fill="#003d68"/>
      <path id="Path_15" data-name="Path 15" d="M412.263,173.012V162.874h-3.085v-1.168h7.438v1.168H413.53v10.138Z" transform="translate(-258.172 -102.029)" fill="#003d68"/>
      <path id="Path_16" data-name="Path 16" d="M435.861,173.012v-4.639l-3.979-6.666h1.4l3.231,5.418,3.2-5.418h1.364l-3.946,6.666v4.639Z" transform="translate(-272.498 -102.029)" fill="#003d68"/>
      <path id="Path_17" data-name="Path 17" d="M462.069,173.012V161.706h1.267v10.138H468v1.168Z" transform="translate(-291.544 -102.029)" fill="#003d68"/>
      <path id="Path_18" data-name="Path 18" d="M483.894,173.012V161.706h6.4v1.168h-5.131v3.585h4.823v1.168h-4.823v4.218h5.245v1.168Z" transform="translate(-305.315 -102.029)" fill="#003d68"/>
      <path id="Path_19" data-name="Path 19" d="M525.456,171.876a.8.8,0,1,1,0,1.135.785.785,0,0,1,0-1.135m.065-1.379-.26-8.791h1.526l-.26,8.791Z" transform="translate(-331.385 -102.029)" fill="#003d68"/>
    </g>
  </g>
</svg>
